<?xml version='1.0' encoding='utf-8'?>
<svg width="71.615436mm" height="46.010831mm" viewBox="-35.807718 -21.391646 71.615436 46.010831" version="1.1" xmlns="http://www.w3.org/2000/svg">
  <g transform="scale(1,-1)" stroke-linecap="round">
    <g fill="none" stroke="rgb(0,0,0)" stroke-width="0.3" id="visible">
      <line x1="-26.870058" y1="-4.935262" x2="-34.727782" y2="-9.457283" />
      <line x1="-26.870058" y1="-4.935262" x2="-25.55493" y2="-4.178422" />
      <line x1="-24.624994" y1="1.026443" x2="7.58372" y2="19.562151" />
      <line x1="13.885953" y1="18.519308" x2="17.686508" y2="20.706479" />
      <path d="M -34.727782,-9.457283 A 3.175,1.8271724056152057 0.0 0,1 -35.657718,-10.749289" />
      <path d="M -35.657718,-10.749289 A 3.175,1.8271724056152057 0.0 0,1 -34.727782,-12.041295" />
      <line x1="-34.727782" y1="-12.041295" x2="-22.176636" y2="-19.26432" />
      <path d="M -25.55493,-4.935262 A 3.175,1.8271724056152057 0.0 0,1 -24.624994,-6.227268" />
      <path d="M -17.686508,-19.26432 A 3.175,1.8271724056152057 180.0 0,0 -22.176636,-19.26432" />
      <line x1="-24.624994" y1="-6.227268" x2="-12.073848" y2="-13.450293" />
      <line x1="-9.828784" y1="-14.742299" x2="-17.686508" y2="-19.26432" />
      <path d="M -7.58372,-13.450293 A 3.175,1.8271724056152057 180.0 0,0 -12.073848,-13.450293" />
      <line x1="-9.828784" y1="-14.742299" x2="-7.58372" y2="-13.450293" />
      <path d="M -26.768411,-10.807785 A 4.762499999999999,2.740758608422808 0.0 0,1 -27.168341,-14.422345" />
      <path d="M -27.168341,-14.422345 A 4.762499999999999,2.740758608422808 0.0 0,1 -19.633289,-14.422345" />
      <path d="M -19.633289,-14.422345 A 4.762499999999999,2.740758608422808 0.0 0,1 -26.768411,-10.807785" />
      <path d="M -35.657718,-15.418988 A 3.175,1.8271724056152057 0.0 0,1 -34.727782,-16.710994" />
      <line x1="34.727782" y1="6.229743" x2="-17.686508" y2="-23.934019" />
      <path d="M 34.727782,6.229743 A 3.175,1.8271724056152057 0.0 0,1 35.657718,7.521749" />
      <path d="M -17.686508,-23.934019 A 3.175,1.8271724056152057 180.0 0,0 -22.176636,-23.934019" />
      <line x1="-34.727782" y1="-16.710994" x2="-22.176636" y2="-23.934019" />
      <path d="M -24.624994,1.026443 A 3.175,1.8271724056152057 0.0 0,1 -25.55493,-0.265563" />
      <path d="M -25.55493,-0.265563 A 3.175,1.8271724056152057 0.0 0,1 -24.624994,-1.557569" />
      <path d="M 17.686508,20.706479 A 3.175,1.8271724056152057 180.0 0,0 22.176636,20.706479" />
      <path d="M 7.58372,19.562151 A 3.175,1.8271724056152057 180.0 0,0 12.073848,19.562151" />
      <line x1="-24.624994" y1="-1.557569" x2="-12.073848" y2="-8.780594" />
      <line x1="12.073848" y1="19.562151" x2="24.624994" y2="12.339126" />
      <path d="M -7.58372,-8.780594 A 3.175,1.8271724056152057 180.0 0,0 -12.073848,-8.780594" />
      <path d="M 24.624994,9.755114 A 3.175,1.8271724056152057 0.0 0,1 25.55493,11.04712" />
      <path d="M 25.55493,11.04712 A 3.175,1.8271724056152057 0.0 0,1 24.624994,12.339126" />
      <line x1="-7.58372" y1="-8.780594" x2="24.624994" y2="9.755114" />
      <line x1="-9.828784" y1="-8.037945" x2="-23.334524" y2="-0.265563" />
      <line x1="-23.334524" y1="-0.265563" x2="-20.753584" y2="1.219735" />
      <line x1="-7.247845" y1="-6.552647" x2="-20.753584" y2="1.219735" />
      <line x1="-9.828784" y1="-8.037945" x2="-7.247845" y2="-6.552647" />
      <line x1="-17.21805" y1="3.254391" x2="-14.63711" y2="4.739689" />
      <line x1="-1.131371" y1="-3.032694" x2="-14.63711" y2="4.739689" />
      <line x1="-3.712311" y1="-4.517992" x2="-1.131371" y2="-3.032694" />
      <line x1="-3.712311" y1="-4.517992" x2="-17.21805" y2="3.254391" />
      <line x1="-11.101576" y1="6.774344" x2="-8.520637" y2="8.259642" />
      <line x1="4.985103" y1="0.48726" x2="-8.520637" y2="8.259642" />
      <line x1="2.404163" y1="-0.998039" x2="4.985103" y2="0.48726" />
      <line x1="2.404163" y1="-0.998039" x2="-11.101576" y2="6.774344" />
      <line x1="-4.985103" y1="10.294297" x2="-2.404163" y2="11.779595" />
      <line x1="11.101576" y1="4.007213" x2="-2.404163" y2="11.779595" />
      <line x1="8.520637" y1="2.521915" x2="11.101576" y2="4.007213" />
      <line x1="8.520637" y1="2.521915" x2="-4.985103" y2="10.294297" />
      <line x1="1.131371" y1="13.814251" x2="3.712311" y2="15.299549" />
      <line x1="17.21805" y1="7.527166" x2="3.712311" y2="15.299549" />
      <line x1="14.63711" y1="6.041868" x2="17.21805" y2="7.527166" />
      <line x1="14.63711" y1="6.041868" x2="1.131371" y2="13.814251" />
      <line x1="7.247845" y1="17.334204" x2="9.828784" y2="18.819502" />
      <line x1="23.334524" y1="11.04712" x2="9.828784" y2="18.819502" />
      <line x1="20.753584" y1="9.561821" x2="23.334524" y2="11.04712" />
      <line x1="20.753584" y1="9.561821" x2="7.247845" y2="17.334204" />
      <line x1="22.176636" y1="20.706479" x2="34.727782" y2="13.483454" />
      <path d="M 34.727782,10.899442 A 3.175,1.8271724056152057 0.0 0,1 35.657718,12.191448" />
      <path d="M 35.657718,12.191448 A 3.175,1.8271724056152057 0.0 0,1 34.727782,13.483454" />
      <line x1="26.870058" y1="6.377421" x2="34.727782" y2="10.899442" />
      <path d="M 24.624994,5.085415 A 3.175,1.8271724056152057 0.0 0,1 25.55493,6.377421" />
      <line x1="26.870058" y1="6.377421" x2="24.624994" y2="5.085415" />
      <path d="M 20.033219,16.125962 A 4.762499999999999,2.740758608422808 180.0 0,0 27.168341,12.511402" />
      <path d="M 27.168341,12.511402 A 4.762499999999999,2.740758608422808 180.0 0,0 25.353169,11.688077" />
      <path d="M 19.189103,15.467412 A 4.762499999999999,2.740758608422808 180.0 0,0 20.033219,16.125962" />
      <path d="M -25.16165,-13.870202 A 2.4901960784313726,1.4330763965609457 0.0 0,1 -25.891011,-14.88354" />
      <path d="M -25.891011,-14.88354 A 2.4901960784313726,1.4330763965609457 0.0 0,1 -25.864714,-15.091257" />
      <path d="M -20.936916,-15.091257 A 2.4901960784313726,1.4330763965609457 0.0 0,1 -20.910619,-14.88354" />
      <path d="M -20.910619,-14.88354 A 2.4901960784313726,1.4330763965609457 0.0 0,1 -25.16165,-13.870202" />
      <path d="M 22.729136,13.430168 A 2.4901960784313726,1.4330763965609457 180.0 0,0 25.891011,12.050207" />
      <path d="M 25.891011,12.050207 A 2.4901960784313726,1.4330763965609457 180.0 0,0 25.864714,11.84249" />
      <line x1="-20.753584" y1="-0.415886" x2="-20.753584" y2="1.219735" />
      <line x1="-21.913449" y1="-1.083373" x2="-20.753584" y2="-0.415886" />
      <line x1="-20.753584" y1="-0.415886" x2="-8.668919" y2="-7.370458" />
      <line x1="-14.63711" y1="3.104067" x2="-14.63711" y2="4.739689" />
      <line x1="-15.796975" y1="2.43658" x2="-14.63711" y2="3.104067" />
      <line x1="-14.63711" y1="3.104067" x2="-2.552446" y2="-3.850504" />
      <line x1="-8.520637" y1="6.624021" x2="-8.520637" y2="8.259642" />
      <line x1="-9.680502" y1="5.956533" x2="-8.520637" y2="6.624021" />
      <line x1="-8.520637" y1="6.624021" x2="3.564028" y2="-0.330551" />
      <line x1="-2.404163" y1="10.143974" x2="-2.404163" y2="11.779595" />
      <line x1="-3.564028" y1="9.476487" x2="-2.404163" y2="10.143974" />
      <line x1="-2.404163" y1="10.143974" x2="9.680502" y2="3.189402" />
      <line x1="3.712311" y1="13.663927" x2="3.712311" y2="15.299549" />
      <line x1="2.552446" y1="12.99644" x2="3.712311" y2="13.663927" />
      <line x1="3.712311" y1="13.663927" x2="15.796975" y2="6.709356" />
      <line x1="9.828784" y1="17.183881" x2="9.828784" y2="18.819502" />
      <line x1="8.668919" y1="16.516393" x2="9.828784" y2="17.183881" />
      <line x1="9.828784" y1="17.183881" x2="21.913449" y2="10.229309" />
      <line x1="-20.287103" y1="-2.019315" x2="-20.187899" y2="-1.962224" />
      <line x1="-10.034055" y1="-7.919815" x2="-9.93485" y2="-7.862724" />
      <line x1="-20.187899" y1="-1.962224" x2="-9.93485" y2="-7.862724" />
      <line x1="-14.17063" y1="1.500639" x2="-14.071425" y2="1.55773" />
      <line x1="-3.917581" y1="-4.399861" x2="-3.818377" y2="-4.34277" />
      <line x1="-14.071425" y1="1.55773" x2="-3.818377" y2="-4.34277" />
      <line x1="-8.054156" y1="5.020592" x2="-7.954951" y2="5.077683" />
      <line x1="2.198892" y1="-0.879908" x2="2.298097" y2="-0.822817" />
      <line x1="-7.954951" y1="5.077683" x2="2.298097" y2="-0.822817" />
      <line x1="-1.937682" y1="8.540545" x2="-1.838478" y2="8.597636" />
      <line x1="8.315366" y1="2.640045" x2="8.414571" y2="2.697136" />
      <line x1="-1.838478" y1="8.597636" x2="8.414571" y2="2.697136" />
      <line x1="4.178791" y1="12.060499" x2="4.277996" y2="12.11759" />
      <line x1="14.43184" y1="6.159999" x2="14.531044" y2="6.21709" />
      <line x1="4.277996" y1="12.11759" x2="14.531044" y2="6.21709" />
      <line x1="10.295265" y1="15.580452" x2="10.39447" y2="15.637543" />
      <line x1="20.548313" y1="9.679952" x2="20.647518" y2="9.737043" />
      <line x1="10.39447" y1="15.637543" x2="20.647518" y2="9.737043" />
      <line x1="-20.187899" y1="-2.076406" x2="-20.187899" y2="-1.962224" />
      <line x1="-14.071425" y1="1.443547" x2="-14.071425" y2="1.55773" />
      <line x1="-7.954951" y1="4.963501" x2="-7.954951" y2="5.077683" />
      <line x1="-1.838478" y1="8.483454" x2="-1.838478" y2="8.597636" />
      <line x1="4.277996" y1="12.003408" x2="4.277996" y2="12.11759" />
      <line x1="10.39447" y1="15.523361" x2="10.39447" y2="15.637543" />
      <line x1="-34.727782" y1="-16.710994" x2="-34.727782" y2="-12.041295" />
      <line x1="-24.624994" y1="-6.227268" x2="-24.624994" y2="-1.557569" />
      <line x1="-22.176636" y1="-23.934019" x2="-22.176636" y2="-19.26432" />
      <line x1="-17.686508" y1="-23.934019" x2="-17.686508" y2="-19.26432" />
      <line x1="-12.073848" y1="-13.450293" x2="-12.073848" y2="-8.780594" />
      <line x1="-7.58372" y1="-13.450293" x2="-7.58372" y2="-8.780594" />
      <line x1="34.727782" y1="6.229743" x2="34.727782" y2="10.899442" />
      <line x1="24.624994" y1="5.085415" x2="24.624994" y2="9.755114" />
      <line x1="-35.657718" y1="-15.418988" x2="-35.657718" y2="-10.749289" />
      <line x1="-25.55493" y1="-4.935262" x2="-25.55493" y2="-0.265563" />
      <line x1="35.657718" y1="7.521749" x2="35.657718" y2="12.191448" />
      <line x1="25.55493" y1="6.377421" x2="25.55493" y2="11.04712" />
    </g>
    <g fill="none" stroke="rgb(160,160,160)" stroke-width="0.2" id="hidden" stroke-dasharray="0.00508 0.60254">
      <line x1="-25.55493" y1="-4.178422" x2="-24.624994" y2="-3.643256" />
      <line x1="17.686508" y1="16.03678" x2="-34.727782" y2="-14.126982" />
      <line x1="9.828784" y1="16.184458" x2="13.885953" y2="18.519308" />
      <line x1="9.828784" y1="16.184458" x2="7.58372" y2="14.892452" />
      <path d="M -24.624994,-3.643256 A 3.175,1.8271724056152057 0.0 0,1 -25.55493,-4.935262" />
      <path d="M -34.727782,-14.126982 A 3.175,1.8271724056152057 0.0 0,1 -35.657718,-15.418988" />
      <path d="M 35.657718,7.521749 A 3.175,1.8271724056152057 0.0 0,1 34.727782,8.813755" />
      <line x1="22.176636" y1="16.03678" x2="34.727782" y2="8.813755" />
      <path d="M 17.686508,16.03678 A 3.175,1.8271724056152057 180.0 0,0 22.176636,16.03678" />
      <path d="M -25.16165,-16.402155 A 2.4901960784313726,1.4330763965609457 0.0 0,1 -25.891011,-17.415493" />
      <path d="M -25.891011,-17.415493 A 2.4901960784313726,1.4330763965609457 0.0 0,1 -20.910619,-17.415493" />
      <path d="M -20.910619,-17.415493 A 2.4901960784313726,1.4330763965609457 0.0 0,1 -25.16165,-16.402155" />
      <path d="M 21.639981,10.531592 A 2.4901960784313726,1.4330763965609457 180.0 0,0 25.891011,9.518254" />
      <path d="M 25.891011,9.518254 A 2.4901960784313726,1.4330763965609457 180.0 0,0 20.910619,9.518254" />
      <path d="M 20.910619,9.518254 A 2.4901960784313726,1.4330763965609457 180.0 0,0 21.639981,10.531592" />
      <path d="M 7.58372,14.892452 A 3.175,1.8271724056152057 180.0 0,0 12.073848,14.892452" />
      <line x1="12.073848" y1="14.892452" x2="24.624994" y2="7.669427" />
      <path d="M 25.55493,6.377421 A 3.175,1.8271724056152057 0.0 0,1 24.624994,7.669427" />
      <path d="M 25.353169,11.688077 A 4.762499999999999,2.740758608422808 180.0 0,0 19.633289,12.511402" />
      <path d="M 19.633289,12.511402 A 4.762499999999999,2.740758608422808 180.0 0,0 19.189103,15.467412" />
      <path d="M -25.864714,-15.091257 A 2.4901960784313726,1.4330763965609457 0.0 0,1 -25.370763,-15.760168" />
      <path d="M -25.370763,-15.760168 A 2.4901960784313726,1.4330763965609457 0.0 0,1 -21.430867,-15.760168" />
      <path d="M -21.430867,-15.760168 A 2.4901960784313726,1.4330763965609457 0.0 0,1 -20.936916,-15.091257" />
      <path d="M 21.639981,13.063545 A 2.4901960784313726,1.4330763965609457 180.0 0,0 22.729136,13.430168" />
      <path d="M 25.864714,11.84249 A 2.4901960784313726,1.4330763965609457 180.0 0,0 25.370763,11.173579" />
      <path d="M 25.370763,11.173579 A 2.4901960784313726,1.4330763965609457 180.0 0,0 21.430867,11.173579" />
      <path d="M 21.430867,11.173579 A 2.4901960784313726,1.4330763965609457 180.0 0,0 20.910619,12.050207" />
      <path d="M 20.910619,12.050207 A 2.4901960784313726,1.4330763965609457 180.0 0,0 21.639981,13.063545" />
      <line x1="-9.828784" y1="-9.673567" x2="-9.828784" y2="-8.037945" />
      <line x1="-23.334524" y1="-1.901184" x2="-23.334524" y2="-0.265563" />
      <line x1="-23.334524" y1="-1.901184" x2="-9.828784" y2="-9.673567" />
      <line x1="-23.334524" y1="-1.901184" x2="-21.913449" y2="-1.083373" />
      <line x1="-7.247845" y1="-8.188268" x2="-7.247845" y2="-6.552647" />
      <line x1="-8.668919" y1="-7.370458" x2="-7.247845" y2="-8.188268" />
      <line x1="-9.828784" y1="-9.673567" x2="-7.247845" y2="-8.188268" />
      <line x1="-17.21805" y1="1.618769" x2="-17.21805" y2="3.254391" />
      <line x1="-17.21805" y1="1.618769" x2="-15.796975" y2="2.43658" />
      <line x1="-1.131371" y1="-4.668315" x2="-1.131371" y2="-3.032694" />
      <line x1="-2.552446" y1="-3.850504" x2="-1.131371" y2="-4.668315" />
      <line x1="-3.712311" y1="-6.153613" x2="-3.712311" y2="-4.517992" />
      <line x1="-3.712311" y1="-6.153613" x2="-1.131371" y2="-4.668315" />
      <line x1="-17.21805" y1="1.618769" x2="-3.712311" y2="-6.153613" />
      <line x1="-11.101576" y1="5.138723" x2="-11.101576" y2="6.774344" />
      <line x1="-11.101576" y1="5.138723" x2="-9.680502" y2="5.956533" />
      <line x1="4.985103" y1="-1.148362" x2="4.985103" y2="0.48726" />
      <line x1="3.564028" y1="-0.330551" x2="4.985103" y2="-1.148362" />
      <line x1="2.404163" y1="-2.63366" x2="2.404163" y2="-0.998039" />
      <line x1="2.404163" y1="-2.63366" x2="4.985103" y2="-1.148362" />
      <line x1="-11.101576" y1="5.138723" x2="2.404163" y2="-2.63366" />
      <line x1="-4.985103" y1="8.658676" x2="-4.985103" y2="10.294297" />
      <line x1="-4.985103" y1="8.658676" x2="-3.564028" y2="9.476487" />
      <line x1="11.101576" y1="2.371592" x2="11.101576" y2="4.007213" />
      <line x1="9.680502" y1="3.189402" x2="11.101576" y2="2.371592" />
      <line x1="8.520637" y1="0.886293" x2="8.520637" y2="2.521915" />
      <line x1="8.520637" y1="0.886293" x2="11.101576" y2="2.371592" />
      <line x1="-4.985103" y1="8.658676" x2="8.520637" y2="0.886293" />
      <line x1="1.131371" y1="12.178629" x2="1.131371" y2="13.814251" />
      <line x1="1.131371" y1="12.178629" x2="2.552446" y2="12.99644" />
      <line x1="17.21805" y1="5.891545" x2="17.21805" y2="7.527166" />
      <line x1="15.796975" y1="6.709356" x2="17.21805" y2="5.891545" />
      <line x1="14.63711" y1="4.406247" x2="14.63711" y2="6.041868" />
      <line x1="14.63711" y1="4.406247" x2="17.21805" y2="5.891545" />
      <line x1="1.131371" y1="12.178629" x2="14.63711" y2="4.406247" />
      <line x1="7.247845" y1="15.698583" x2="7.247845" y2="17.334204" />
      <line x1="7.247845" y1="15.698583" x2="8.668919" y2="16.516393" />
      <line x1="23.334524" y1="9.411498" x2="23.334524" y2="11.04712" />
      <line x1="21.913449" y1="10.229309" x2="23.334524" y2="9.411498" />
      <line x1="20.753584" y1="7.9262" x2="20.753584" y2="9.561821" />
      <line x1="20.753584" y1="7.9262" x2="23.334524" y2="9.411498" />
      <line x1="7.247845" y1="15.698583" x2="20.753584" y2="7.9262" />
      <line x1="-20.647518" y1="-2.226729" x2="-20.287103" y2="-2.019315" />
      <line x1="-20.647518" y1="-2.226729" x2="-10.39447" y2="-8.127229" />
      <line x1="-10.39447" y1="-8.127229" x2="-10.034055" y2="-7.919815" />
      <line x1="-14.531044" y1="1.293224" x2="-14.17063" y2="1.500639" />
      <line x1="-14.531044" y1="1.293224" x2="-4.277996" y2="-4.607275" />
      <line x1="-4.277996" y1="-4.607275" x2="-3.917581" y2="-4.399861" />
      <line x1="-8.414571" y1="4.813178" x2="-8.054156" y2="5.020592" />
      <line x1="-8.414571" y1="4.813178" x2="1.838478" y2="-1.087322" />
      <line x1="1.838478" y1="-1.087322" x2="2.198892" y2="-0.879908" />
      <line x1="-2.298097" y1="8.333131" x2="-1.937682" y2="8.540545" />
      <line x1="-2.298097" y1="8.333131" x2="7.954951" y2="2.432631" />
      <line x1="7.954951" y1="2.432631" x2="8.315366" y2="2.640045" />
      <line x1="3.818377" y1="11.853084" x2="4.178791" y2="12.060499" />
      <line x1="3.818377" y1="11.853084" x2="14.071425" y2="5.952585" />
      <line x1="14.071425" y1="5.952585" x2="14.43184" y2="6.159999" />
      <line x1="9.93485" y1="15.373038" x2="10.295265" y2="15.580452" />
      <line x1="9.93485" y1="15.373038" x2="20.187899" y2="9.472538" />
      <line x1="20.187899" y1="9.472538" x2="20.548313" y2="9.679952" />
      <line x1="-20.647518" y1="-7.477073" x2="-20.647518" y2="-2.226729" />
      <line x1="-20.187899" y1="-7.212568" x2="-20.187899" y2="-2.076406" />
      <line x1="-20.647518" y1="-7.477073" x2="-20.187899" y2="-7.212568" />
      <line x1="-20.647518" y1="-7.477073" x2="-10.39447" y2="-13.377573" />
      <line x1="-10.39447" y1="-13.377573" x2="-10.39447" y2="-8.127229" />
      <line x1="-9.93485" y1="-13.113068" x2="-9.93485" y2="-7.862724" />
      <line x1="-10.39447" y1="-13.377573" x2="-9.93485" y2="-13.113068" />
      <line x1="-20.187899" y1="-7.212568" x2="-9.93485" y2="-13.113068" />
      <line x1="-14.531044" y1="-3.95712" x2="-14.531044" y2="1.293224" />
      <line x1="-14.071425" y1="-3.692615" x2="-14.071425" y2="1.443547" />
      <line x1="-14.531044" y1="-3.95712" x2="-14.071425" y2="-3.692615" />
      <line x1="-14.531044" y1="-3.95712" x2="-4.277996" y2="-9.85762" />
      <line x1="-4.277996" y1="-9.85762" x2="-4.277996" y2="-4.607275" />
      <line x1="-3.818377" y1="-9.593115" x2="-3.818377" y2="-4.34277" />
      <line x1="-4.277996" y1="-9.85762" x2="-3.818377" y2="-9.593115" />
      <line x1="-14.071425" y1="-3.692615" x2="-3.818377" y2="-9.593115" />
      <line x1="-8.414571" y1="-0.437167" x2="-8.414571" y2="4.813178" />
      <line x1="-7.954951" y1="-0.172662" x2="-7.954951" y2="4.963501" />
      <line x1="-8.414571" y1="-0.437167" x2="-7.954951" y2="-0.172662" />
      <line x1="-8.414571" y1="-0.437167" x2="1.838478" y2="-6.337667" />
      <line x1="1.838478" y1="-6.337667" x2="1.838478" y2="-1.087322" />
      <line x1="2.298097" y1="-6.073161" x2="2.298097" y2="-0.822817" />
      <line x1="1.838478" y1="-6.337667" x2="2.298097" y2="-6.073161" />
      <line x1="-7.954951" y1="-0.172662" x2="2.298097" y2="-6.073161" />
      <line x1="-2.298097" y1="3.082787" x2="-2.298097" y2="8.333131" />
      <line x1="-1.838478" y1="3.347292" x2="-1.838478" y2="8.483454" />
      <line x1="-2.298097" y1="3.082787" x2="-1.838478" y2="3.347292" />
      <line x1="-2.298097" y1="3.082787" x2="7.954951" y2="-2.817713" />
      <line x1="7.954951" y1="-2.817713" x2="7.954951" y2="2.432631" />
      <line x1="8.414571" y1="-2.553208" x2="8.414571" y2="2.697136" />
      <line x1="7.954951" y1="-2.817713" x2="8.414571" y2="-2.553208" />
      <line x1="-1.838478" y1="3.347292" x2="8.414571" y2="-2.553208" />
      <line x1="3.818377" y1="6.60274" x2="3.818377" y2="11.853084" />
      <line x1="4.277996" y1="6.867245" x2="4.277996" y2="12.003408" />
      <line x1="3.818377" y1="6.60274" x2="4.277996" y2="6.867245" />
      <line x1="3.818377" y1="6.60274" x2="14.071425" y2="0.70224" />
      <line x1="14.071425" y1="0.70224" x2="14.071425" y2="5.952585" />
      <line x1="14.531044" y1="0.966745" x2="14.531044" y2="6.21709" />
      <line x1="14.071425" y1="0.70224" x2="14.531044" y2="0.966745" />
      <line x1="4.277996" y1="6.867245" x2="14.531044" y2="0.966745" />
      <line x1="9.93485" y1="10.122693" x2="9.93485" y2="15.373038" />
      <line x1="10.39447" y1="10.387198" x2="10.39447" y2="15.523361" />
      <line x1="9.93485" y1="10.122693" x2="10.39447" y2="10.387198" />
      <line x1="9.93485" y1="10.122693" x2="20.187899" y2="4.222193" />
      <line x1="20.187899" y1="4.222193" x2="20.187899" y2="9.472538" />
      <line x1="20.647518" y1="4.486699" x2="20.647518" y2="9.737043" />
      <line x1="20.187899" y1="4.222193" x2="20.647518" y2="4.486699" />
      <line x1="10.39447" y1="10.387198" x2="20.647518" y2="4.486699" />
      <line x1="-21.430867" y1="-15.760168" x2="-19.633289" y2="-14.422345" />
      <line x1="-25.370763" y1="-15.760168" x2="-27.168341" y2="-14.422345" />
      <line x1="-25.891011" y1="-14.88354" x2="-25.891011" y2="-17.415493" />
      <line x1="-20.910619" y1="-14.88354" x2="-20.910619" y2="-17.415493" />
      <line x1="20.910619" y1="12.050207" x2="20.910619" y2="9.518254" />
      <line x1="25.891011" y1="12.050207" x2="25.891011" y2="9.518254" />
      <line x1="21.430867" y1="11.173579" x2="19.633289" y2="12.511402" />
      <line x1="25.370763" y1="11.173579" x2="27.168341" y2="12.511402" />
      <line x1="-34.727782" y1="-14.126982" x2="-34.727782" y2="-9.457283" />
      <line x1="-24.624994" y1="-3.643256" x2="-24.624994" y2="1.026443" />
      <line x1="17.686508" y1="16.03678" x2="17.686508" y2="20.706479" />
      <line x1="7.58372" y1="14.892452" x2="7.58372" y2="19.562151" />
      <line x1="22.176636" y1="16.03678" x2="22.176636" y2="20.706479" />
      <line x1="12.073848" y1="14.892452" x2="12.073848" y2="19.562151" />
      <line x1="34.727782" y1="8.813755" x2="34.727782" y2="13.483454" />
      <line x1="24.624994" y1="7.669427" x2="24.624994" y2="12.339126" />
    </g>
  </g>
</svg>