<?xml version='1.0' encoding='utf-8'?>
<svg width="161.105421mm" height="120.888085mm" viewBox="-85.231176 -58.378695 161.105421 120.888085" version="1.1" xmlns="http://www.w3.org/2000/svg">
  <g transform="scale(1,-1)" stroke-linecap="round">
    <g fill="none" stroke="rgb(0,0,0)" stroke-width="0.3" id="visible">
      <line x1="32.409115" y1="-0.395886" x2="-52.196933" y2="-0.739322" />
      <path d="M 32.409115,-0.395886 A 6.35,3.6677558067284584 180.0 0,0 38.80374,-4.063551" />
      <path d="M 38.80374,-4.063551 A 6.35,3.6677558067284584 180.0 0,0 36.975312,-6.638756" />
      <path d="M -52.196933,-0.739322 A 6.35,3.6677558067284584 -1.948104361860193e-15 0,1 -58.502308,-4.406987" />
      <path d="M -58.502308,-4.406987 A 6.35,3.6677558067284584 -1.948104361860193e-15 0,1 -56.61077,-7.018644" />
      <line x1="-5.030415" y1="-31.244673" x2="36.975312" y2="-6.638756" />
      <line x1="-56.61077" y1="-7.018644" x2="-14.01045" y2="-31.281125" />
      <path d="M -14.01045,-31.281125 A 6.35,3.6677558067284584 -1.948104361860193e-15 0,1 -5.030415,-31.244673" />
      <path d="M -73.73195,-12.720246 A 38.099999999999994,22.006534840370747 180.0 0,0 -85.081176,2.949696" />
      <path d="M -85.081176,2.949696 A 38.099999999999994,22.006534840370747 180.0 0,0 -74.110608,18.400926" />
      <line x1="-73.73195" y1="-12.720246" x2="-4.777977" y2="-51.992121" />
      <line x1="-6.119058" y1="58.228695" x2="-74.110608" y2="18.400926" />
      <line x1="-4.777977" y1="-51.992121" x2="67.672036" y2="-9.552694" />
      <line x1="-6.119058" y1="58.228695" x2="67.356488" y2="16.381616" />
      <line x1="63.150464" y1="-6.977489" x2="67.672036" y2="-9.552694" />
      <line x1="62.898025" y1="13.769959" x2="67.356488" y2="16.381616" />
      <line x1="63.150464" y1="-6.977489" x2="72.067389" y2="-1.754175" />
      <line x1="62.898025" y1="13.769959" x2="71.94117" y2="8.619549" />
      <path d="M 72.067389,-1.754175 A 12.7,7.335511613456917 -1.948104361860193e-15 0,1 75.724245,3.396235" />
      <path d="M 75.724245,3.396235 A 12.7,7.335511613456917 -1.948104361860193e-15 0,1 71.94117,8.619549" />
      <line x1="-52.286184" y1="6.596008" x2="32.319864" y2="6.939445" />
      <path d="M -52.286184,6.596008 A 6.35,3.6677558067284584 180.0 0,0 -58.680809,10.263674" />
      <path d="M -58.680809,10.263674 A 6.35,3.6677558067284584 180.0 0,0 -56.852381,12.838879" />
      <path d="M 32.319864,6.939445 A 6.35,3.6677558067284584 -1.948104361860193e-15 0,1 38.625239,10.60711" />
      <path d="M 38.625239,10.60711 A 6.35,3.6677558067284584 -1.948104361860193e-15 0,1 36.733702,13.218767" />
      <line x1="-56.852381" y1="12.838879" x2="-14.846653" y2="37.444795" />
      <line x1="-5.866619" y1="37.481248" x2="36.733702" y2="13.218767" />
      <path d="M -5.866619,37.481248 A 6.35,3.6677558067284584 -1.948104361860193e-15 0,1 -14.846653,37.444795" />
      <line x1="32.409115" y1="-5.57952" x2="-52.196933" y2="-5.922957" />
      <path d="M 32.409115,-5.57952 A 6.35,3.6677558067284584 180.0 0,0 36.946863,-6.655421" />
      <path d="M -52.196933,-5.922957 A 6.35,3.6677558067284584 -1.948104361860193e-15 0,1 -56.645339,-6.998805" />
      <path d="M -73.73195,-17.90388 A 38.099999999999994,22.006534840370747 180.0 0,0 -85.081176,-2.233938" />
      <line x1="-73.73195" y1="-17.90388" x2="-73.73195" y2="-12.720246" />
      <line x1="-73.73195" y1="-17.90388" x2="-9.299549" y2="-54.60055" />
      <line x1="-4.777977" y1="-62.35939" x2="-4.777977" y2="-51.992121" />
      <line x1="-9.299549" y1="-59.784185" x2="-4.777977" y2="-62.35939" />
      <line x1="-9.299549" y1="-59.784185" x2="-9.299549" y2="-54.60055" />
      <line x1="67.672036" y1="-19.919963" x2="67.672036" y2="-9.552694" />
      <line x1="-4.777977" y1="-62.35939" x2="67.672036" y2="-19.919963" />
      <line x1="67.356488" y1="11.230697" x2="67.356488" y2="16.381616" />
      <line x1="67.637244" y1="-9.532879" x2="72.067389" y2="-6.93781" />
      <path d="M 72.067389,-6.93781 A 12.7,7.335511613456917 -1.948104361860193e-15 0,1 75.724245,-1.7874" />
      <path d="M 36.76827,8.015293 A 6.35,3.6677558067284584 -1.948104361860193e-15 0,1 36.733702,8.035132" />
      <line x1="-56.823931" y1="7.671909" x2="-14.846653" y2="32.261161" />
      <line x1="-5.866619" y1="32.297613" x2="36.733702" y2="8.035132" />
      <path d="M -5.866619,32.297613 A 6.35,3.6677558067284584 -1.948104361860193e-15 0,1 -14.846653,32.261161" />
      <line x1="32.409115" y1="-0.395886" x2="32.409115" y2="-5.57952" />
      <line x1="-52.196933" y1="-0.739322" x2="-52.196933" y2="-5.922957" />
      <line x1="72.067389" y1="-6.93781" x2="72.067389" y2="-1.754175" />
      <line x1="-56.852381" y1="12.838879" x2="-56.852381" y2="7.688469" />
      <line x1="36.733702" y1="13.218767" x2="36.733702" y2="8.035132" />
      <line x1="-14.846653" y1="37.444795" x2="-14.846653" y2="32.261161" />
      <line x1="-5.866619" y1="37.481248" x2="-5.866619" y2="32.297613" />
      <line x1="-85.081176" y1="-2.233938" x2="-85.081176" y2="2.949696" />
      <line x1="75.724245" y1="-1.7874" x2="75.724245" y2="3.396235" />
    </g>
    <g fill="none" stroke="rgb(160,160,160)" stroke-width="0.2" id="hidden" stroke-dasharray="0.00508 0.60254">
      <path d="M 36.946863,-6.655421 A 6.35,3.6677558067284584 180.0 0,0 38.80374,-9.247186" />
      <path d="M 38.80374,-9.247186 A 6.35,3.6677558067284584 180.0 0,0 36.975312,-11.822391" />
      <path d="M -56.645339,-6.998805 A 6.35,3.6677558067284584 -1.948104361860193e-15 0,1 -58.502308,-9.590622" />
      <path d="M -58.502308,-9.590622 A 6.35,3.6677558067284584 -1.948104361860193e-15 0,1 -56.61077,-12.202279" />
      <line x1="-5.030415" y1="-36.428307" x2="36.975312" y2="-11.822391" />
      <line x1="-56.61077" y1="-12.202279" x2="-14.01045" y2="-36.46476" />
      <path d="M -14.01045,-36.46476 A 6.35,3.6677558067284584 -1.948104361860193e-15 0,1 -5.030415,-36.428307" />
      <path d="M -85.081176,-2.233938 A 38.099999999999994,22.006534840370747 180.0 0,0 -74.110608,13.217291" />
      <line x1="-74.110608" y1="13.217291" x2="-74.110608" y2="18.400926" />
      <line x1="-74.110608" y1="13.217291" x2="-10.57752" y2="50.433404" />
      <line x1="-10.57752" y1="45.249769" x2="-10.57752" y2="50.433404" />
      <line x1="-10.57752" y1="45.249769" x2="-6.119058" y2="47.861426" />
      <line x1="-6.119058" y1="47.861426" x2="-6.119058" y2="58.228695" />
      <line x1="67.356488" y1="6.014346" x2="67.356488" y2="11.230697" />
      <line x1="-6.119058" y1="47.861426" x2="67.356488" y2="6.014346" />
      <line x1="63.150464" y1="-17.344758" x2="67.672036" y2="-19.919963" />
      <line x1="63.150464" y1="-17.344758" x2="63.150464" y2="-12.161124" />
      <line x1="63.150464" y1="-12.161124" x2="63.150464" y2="-6.977489" />
      <line x1="62.898025" y1="3.402689" x2="67.356488" y2="6.014346" />
      <line x1="62.898025" y1="3.402689" x2="62.898025" y2="8.586324" />
      <line x1="62.898025" y1="8.586324" x2="62.898025" y2="13.769959" />
      <line x1="63.150464" y1="-12.161124" x2="67.637244" y2="-9.532879" />
      <line x1="62.898025" y1="8.586324" x2="71.94117" y2="3.435914" />
      <path d="M 75.724245,-1.7874 A 12.7,7.335511613456917 -1.948104361860193e-15 0,1 71.94117,3.435914" />
      <line x1="-52.286184" y1="1.412374" x2="32.319864" y2="1.75581" />
      <path d="M -52.286184,1.412374 A 6.35,3.6677558067284584 180.0 0,0 -58.680809,5.080039" />
      <path d="M -58.680809,5.080039 A 6.35,3.6677558067284584 180.0 0,0 -56.852381,7.655244" />
      <path d="M 32.319864,1.75581 A 6.35,3.6677558067284584 -1.948104361860193e-15 0,1 38.625239,5.423475" />
      <path d="M 38.625239,5.423475 A 6.35,3.6677558067284584 -1.948104361860193e-15 0,1 36.76827,8.015293" />
      <line x1="-56.852381" y1="7.655244" x2="-56.823931" y2="7.671909" />
      <line x1="-10.57752" y1="50.433404" x2="62.898025" y2="8.586324" />
      <line x1="-9.299549" y1="-54.60055" x2="63.150464" y2="-12.161124" />
      <line x1="-9.299549" y1="-59.784185" x2="63.150464" y2="-17.344758" />
      <line x1="-10.57752" y1="45.249769" x2="62.898025" y2="3.402689" />
      <line x1="38.80374" y1="-4.063551" x2="38.80374" y2="-9.247186" />
      <line x1="-58.502308" y1="-4.406987" x2="-58.502308" y2="-9.590622" />
      <line x1="-58.680809" y1="10.263674" x2="-58.680809" y2="5.080039" />
      <line x1="38.625239" y1="10.60711" x2="38.625239" y2="5.423475" />
      <line x1="36.975312" y1="-6.638756" x2="36.975312" y2="-11.822391" />
      <line x1="-56.61077" y1="-7.018644" x2="-56.61077" y2="-12.202279" />
      <line x1="-5.030415" y1="-31.244673" x2="-5.030415" y2="-36.428307" />
      <line x1="-14.01045" y1="-31.281125" x2="-14.01045" y2="-36.46476" />
      <line x1="71.94117" y1="3.435914" x2="71.94117" y2="8.619549" />
      <line x1="-52.286184" y1="6.596008" x2="-52.286184" y2="1.412374" />
      <line x1="32.319864" y1="6.939445" x2="32.319864" y2="1.75581" />
      <line x1="-56.852381" y1="7.688469" x2="-56.852381" y2="7.655244" />
    </g>
  </g>
</svg>