<?xml version='1.0' encoding='utf-8'?>
<svg width="145.059628mm" height="89.191657mm" viewBox="-66.597744 -48.334672 145.059628 89.191657" version="1.1" xmlns="http://www.w3.org/2000/svg">
  <g transform="scale(1,-1)" stroke-linecap="round">
    <g fill="none" stroke="rgb(0,0,0)" stroke-width="0.3" id="visible">
      <line x1="-17.015157" y1="40.397635" x2="-5.154206" y2="33.529322" />
      <line x1="-17.015157" y1="40.397635" x2="-12.520453" y2="42.989786" />
      <line x1="-12.520453" y1="42.989786" x2="-21.491548" y2="48.184672" />
      <line x1="-39.470364" y1="37.816066" x2="-21.491548" y2="48.184672" />
      <line x1="-34.984816" y1="35.218623" x2="-39.470364" y2="37.816066" />
      <line x1="-66.447744" y1="17.073563" x2="-34.984816" y2="35.218623" />
      <line x1="-66.447744" y1="17.073563" x2="24.384594" y2="-35.524655" />
      <line x1="24.384594" y1="-35.524655" x2="55.847522" y2="-17.379595" />
      <line x1="55.847522" y1="-17.379595" x2="60.333069" y2="-19.977038" />
      <line x1="60.333069" y1="-19.977038" x2="78.311885" y2="-9.608432" />
      <line x1="69.34079" y1="-4.413546" x2="78.311885" y2="-9.608432" />
      <line x1="64.846086" y1="-7.005697" x2="69.34079" y2="-4.413546" />
      <line x1="52.985135" y1="-0.137385" x2="64.846086" y2="-7.005697" />
      <path d="M 48.674528,-0.038889 A 3.175,1.834799645176681 180.0 0,0 52.985135,-0.137385" />
      <path d="M -4.992556,31.038072 A 38.099999999999994,22.01759574212017 0.0 0,1 -14.184536,16.695969" />
      <path d="M -14.184536,16.695969 A 38.099999999999994,22.01759574212017 0.0 0,1 48.674528,-0.038889" />
      <path d="M -5.154206,33.529322 A 3.175,1.834799645176681 180.0 0,0 -4.226558,32.233247" />
      <path d="M -4.226558,32.233247 A 3.175,1.834799645176681 180.0 0,0 -4.992556,31.038072" />
      <path d="M -4.226558,27.050917 A 3.175,1.834799645176681 180.0 0,0 -4.992556,25.855742" />
      <line x1="-66.447744" y1="11.891233" x2="-66.447744" y2="17.073563" />
      <path d="M -4.992556,25.855742 A 38.099999999999994,22.01759574212017 0.0 0,1 -13.919773,14.104804" />
      <line x1="-66.447744" y1="11.891233" x2="24.384594" y2="-40.706985" />
      <line x1="24.384594" y1="-40.706985" x2="24.384594" y2="-35.524655" />
      <line x1="55.847522" y1="-17.379595" x2="55.847522" y2="-22.561925" />
      <line x1="24.384594" y1="-40.706985" x2="55.847522" y2="-22.561925" />
      <line x1="-12.520453" y1="37.79489" x2="-12.520453" y2="42.989786" />
      <line x1="-39.470364" y1="32.631752" x2="-39.470364" y2="37.816066" />
      <line x1="55.847522" y1="-27.744254" x2="60.333069" y2="-30.341697" />
      <line x1="60.333069" y1="-30.341697" x2="60.333069" y2="-19.977038" />
      <line x1="55.847522" y1="-22.561925" x2="55.847522" y2="-27.744254" />
      <line x1="78.311885" y1="-19.973091" x2="78.311885" y2="-9.608432" />
      <line x1="60.333069" y1="-30.341697" x2="78.311885" y2="-19.973091" />
      <line x1="-4.992556" y1="25.855742" x2="-4.992556" y2="31.038072" />
      <line x1="-4.226558" y1="27.050917" x2="-4.226558" y2="32.233247" />
    </g>
    <g fill="none" stroke="rgb(160,160,160)" stroke-width="0.2" id="hidden" stroke-dasharray="0.00508 0.60254">
      <line x1="-17.015157" y1="35.215305" x2="-17.015157" y2="40.397635" />
      <line x1="-17.015157" y1="35.215305" x2="-5.154206" y2="28.346993" />
      <path d="M -5.154206,28.346993 A 3.175,1.834799645176681 180.0 0,0 -4.226558,27.050917" />
      <line x1="-34.984816" y1="35.218623" x2="-34.984816" y2="30.036294" />
      <line x1="-66.447744" y1="11.891233" x2="-34.984816" y2="30.036294" />
      <path d="M -13.919773,14.104804 A 38.099999999999994,22.01759574212017 0.0 0,1 -14.184536,11.513639" />
      <path d="M -14.184536,11.513639 A 38.099999999999994,22.01759574212017 0.0 0,1 48.674528,-5.221219" />
      <path d="M 48.674528,-5.221219 A 3.175,1.834799645176681 180.0 0,0 52.985135,-5.319715" />
      <line x1="52.985135" y1="-5.319715" x2="64.846086" y2="-12.188027" />
      <line x1="64.846086" y1="-12.188027" x2="64.846086" y2="-7.005697" />
      <line x1="-12.520453" y1="32.625127" x2="-12.520453" y2="37.79489" />
      <line x1="-17.015157" y1="30.032976" x2="-12.520453" y2="32.625127" />
      <line x1="-17.015157" y1="30.032976" x2="-17.015157" y2="35.215305" />
      <line x1="-12.520453" y1="32.625127" x2="-21.491548" y2="37.820013" />
      <line x1="-21.491548" y1="37.820013" x2="-21.491548" y2="48.184672" />
      <line x1="-39.470364" y1="27.451407" x2="-39.470364" y2="32.631752" />
      <line x1="-39.470364" y1="27.451407" x2="-21.491548" y2="37.820013" />
      <line x1="-34.984816" y1="24.853964" x2="-39.470364" y2="27.451407" />
      <line x1="-34.984816" y1="30.036294" x2="-34.984816" y2="24.853964" />
      <line x1="-21.500705" y1="37.812748" x2="-17.015157" y2="35.215305" />
      <line x1="-34.984816" y1="30.036294" x2="-21.500705" y2="37.812748" />
      <line x1="55.847522" y1="-22.561925" x2="69.331633" y2="-14.78547" />
      <line x1="64.846086" y1="-12.188027" x2="69.331633" y2="-14.78547" />
      <line x1="69.34079" y1="-14.778205" x2="69.34079" y2="-4.413546" />
      <line x1="64.846086" y1="-17.370357" x2="69.34079" y2="-14.778205" />
      <line x1="64.846086" y1="-17.370357" x2="64.846086" y2="-12.188027" />
      <line x1="69.34079" y1="-14.778205" x2="78.311885" y2="-19.973091" />
      <line x1="-34.984816" y1="24.853964" x2="-21.500705" y2="32.630418" />
      <line x1="-17.015157" y1="30.032976" x2="-21.500705" y2="32.630418" />
      <line x1="-21.500705" y1="32.630418" x2="-21.500705" y2="37.812748" />
      <line x1="69.331633" y1="-19.9678" x2="69.331633" y2="-14.78547" />
      <line x1="55.847522" y1="-27.744254" x2="69.331633" y2="-19.9678" />
      <line x1="64.846086" y1="-17.370357" x2="69.331633" y2="-19.9678" />
      <line x1="-14.184536" y1="11.513639" x2="-14.184536" y2="16.695969" />
      <line x1="-5.154206" y1="28.346993" x2="-5.154206" y2="33.529322" />
      <line x1="48.674528" y1="-0.038889" x2="48.674528" y2="-5.221219" />
      <line x1="52.985135" y1="-0.137385" x2="52.985135" y2="-5.319715" />
    </g>
  </g>
</svg>