<?xml version='1.0' encoding='utf-8'?>
<svg width="114.6mm" height="159.074762mm" viewBox="-57.155413 -94.255884 114.6 159.074762" version="1.1" xmlns="http://www.w3.org/2000/svg">
  <g transform="scale(1,-1)" stroke-linecap="round">
    <g fill="none" stroke="rgb(0,0,0)" stroke-width="0.3" id="visible">
      <path d="M -28.399875,85.605479 C -28.735933,85.477397 -29.068167,85.284193 -29.374179,85.039744 C -29.904566,84.615808 -30.299929,84.090463 -30.561157,83.583077 C -30.861124,82.998797 -30.999646,82.425888 -31.000468,81.917414" />
      <line x1="-31.000468" y1="39.442683" x2="-31.000468" y2="81.917414" />
      <line x1="-39.981642" y1="44.488183" x2="-39.981642" y2="76.871914" />
      <path d="M -39.981642,76.871914 C -39.982417,77.540808 -40.171655,78.09205 -40.577699,78.325716" />
      <path d="M -40.577699,78.325716 C -40.721346,78.409046 -40.890358,78.440265 -41.084734,78.419371 C -41.323374,78.391233 -41.599416,78.263376 -41.871637,78.037229" />
      <path d="M -41.871637,78.037229 A 50.8,28.54457685443711 1.922472034434914e-15 0,1 -50.655413,61.993235" />
      <path d="M -50.655413,61.993235 A 50.8,28.54457685443711 1.922472034434914e-15 0,1 36.061939,41.807108" />
      <line x1="14.295962" y1="-46.839022" x2="14.295962" y2="9.178771" />
      <line x1="-28.399431" y1="-43.036771" x2="-28.399431" y2="13.16183" />
      <line x1="-47.648134" y1="-29.099764" x2="-47.648134" y2="21.464757" />
      <line x1="-14.006787" y1="34.578572" x2="-14.006787" y2="65.770533" />
      <path d="M -14.006787,65.770533 C -14.005089,66.377657 -13.765525,67.033565 -13.237782,67.629042 C -12.932023,67.971739 -12.521491,68.294077 -12.013132,68.527752 C -11.677406,68.682511 -11.299526,68.79445 -10.917589,68.841821" />
      <path d="M -4.645666,69.399631 A 50.8,28.54457685443711 1.922472034434914e-15 0,1 -10.917589,68.841821" />
      <path d="M -1.462942,66.886151 Q -1.462842,67.182832 -1.544417,67.473717" />
      <path d="M -1.544417,67.473717 C -1.658362,67.876706 -1.891059,68.268589 -2.261221,68.60527 C -2.521158,68.841744 -2.863213,69.05713 -3.271006,69.203092 C -3.677895,69.349579 -4.149974,69.4263 -4.645666,69.399631" />
      <line x1="-1.462942" y1="33.462954" x2="-1.462942" y2="66.886151" />
      <line x1="17.373412" y1="35.140431" x2="17.373412" y2="65.208674" />
      <path d="M 17.373412,65.208674 C 17.374115,65.71054 17.536225,66.183257 17.879798,66.563969" />
      <path d="M 17.879798,66.563969 C 18.1914,66.908083 18.668249,67.181121 19.300544,67.250064 C 19.620828,67.285054 19.97899,67.262612 20.338036,67.1747" />
      <path d="M 25.995633,65.554504 A 50.8,28.54457685443711 1.922472034434914e-15 0,1 20.338036,67.1747" />
      <path d="M 28.688606,61.968282 C 28.686985,62.575683 28.481373,63.27127 28.024235,63.954442 C 27.80669,64.278091 27.519294,64.608397 27.173236,64.891991 C 26.827977,65.1758 26.424294,65.412412 25.995633,65.554504" />
      <line x1="28.688606" y1="38.380822" x2="28.688606" y2="61.968282" />
      <line x1="42.172786" y1="45.959148" x2="42.172786" y2="54.389957" />
      <path d="M 42.172786,54.389957 C 42.173278,54.996187 42.315656,55.496169 42.616336,55.753447 C 42.690075,55.816357 42.773486,55.861499 42.86657,55.888873" />
      <path d="M 42.86657,55.888873 C 42.993935,55.927162 43.13751,55.922271 43.297295,55.874201 C 43.4798,55.817394 43.681439,55.692748 43.88045,55.50295" />
      <path d="M 46.762711,52.323609 A 50.8,28.54457685443711 1.922472034434914e-15 0,1 43.88045,55.50295" />
      <path d="M 47.288802,51.360631 C 47.138023,51.730736 46.958586,52.069735 46.762711,52.323609" />
      <line x1="40.270817" y1="-36.929411" x2="40.270817" y2="18.116194" />
      <path d="M 36.061939,41.807108 A 50.8,28.54457685443711 1.922472034434914e-15 0,1 50.944587,61.993235" />
      <path d="M 50.944587,61.993235 A 50.8,28.54457685443711 1.922472034434914e-15 0,1 43.056142,77.270731" />
      <path d="M 41.240127,76.146894 C 41.240706,76.816646 41.424045,77.364038 41.813849,77.588172" />
      <path d="M 41.813849,77.588172 C 41.958765,77.67239 42.129742,77.698481 42.32678,77.666445 C 42.550424,77.627308 42.805448,77.493988 43.056142,77.270731" />
      <line x1="41.240127" y1="63.015025" x2="41.240127" y2="76.146894" />
      <path d="M 41.240127,63.015025 C 41.239558,62.174305 41.125934,61.425087 40.88635,60.800714 C 40.64585,60.177845 40.278595,59.678554 39.745914,59.378177" />
      <path d="M 39.745914,59.378177 C 39.500678,59.238075 39.217449,59.147018 38.896229,59.105006 C 38.524995,59.058465 38.093344,59.086932 37.61541,59.208891 C 37.137864,59.330143 36.614133,59.544623 36.069284,59.851057 C 35.392722,60.230359 34.700761,60.745255 34.071202,61.321841 C 33.138188,62.175126 32.347167,63.144663 31.736881,64.102042 C 30.57113,65.935843 30.017795,67.747352 30.015954,69.323189" />
      <line x1="30.015954" y1="69.323189" x2="30.015954" y2="82.455059" />
      <path d="M 30.015954,82.455059 C 30.014638,83.03867 29.827636,83.706883 29.415439,84.37075 C 29.184511,84.740793 28.878352,85.109492 28.49881,85.427778 C 28.157211,85.71542 27.753449,85.956729 27.342301,86.102162" />
      <path d="M 27.342301,86.102162 A 50.8,28.54457685443711 1.922472034434914e-15 0,1 -28.399875,85.605479" />
      <path d="M 35.065461,87.413626 A 57.15,32.11264896124175 1.922472034434914e-15 0,1 -32.961392,88.169124" />
      <line x1="30.457657" y1="87.852326" x2="33.151458" y2="86.338366" />
      <path d="M 37.536045,83.652442 C 37.534661,84.235244 37.362791,84.909577 36.98026,85.593262 C 36.76767,85.971033 36.485754,86.352389 36.132874,86.68919 C 35.819559,86.989336 35.446753,87.24927 35.065461,87.413626" />
      <path d="M 35.396293,82.450359 A 3.175,1.856936981691969 119.32667787573232 0,1 33.151458,86.338366" />
      <line x1="35.396293" y1="69.318489" x2="35.396293" y2="82.450359" />
      <line x1="37.536045" y1="70.520572" x2="35.396293" y2="69.318489" />
      <line x1="37.536045" y1="70.520572" x2="37.536045" y2="83.652442" />
      <path d="M 37.536045,70.520572 C 37.537394,69.723943 37.787035,68.797974 38.32685,67.851814 C 38.63332,67.316713 39.041279,66.771479 39.535622,66.298551 C 39.854712,65.992804 40.208552,65.72236 40.559871,65.525455 C 40.761442,65.412512 40.956935,65.32459 41.14635,65.261689" />
      <path d="M 41.232863,66.038244 A 4.1274999999999995,2.4140180761995595 -60.67332212426769 0,0 40.33618,64.079842" />
      <path d="M 40.33618,64.079842 A 4.1274999999999995,2.4140180761995595 -60.67332212426769 0,0 35.396293,69.318489" />
      <line x1="41.232863" y1="66.038244" x2="41.232863" y2="79.170114" />
      <path d="M 44.006471,81.847257 C 44.179008,81.944312 44.390352,81.987485 44.634,81.949943 C 44.867146,81.914813 45.130542,81.801014 45.391699,81.610115" />
      <path d="M 41.232863,79.170114 A 3.175,1.856936981691969 -60.67332212426769 0,0 41.922619,80.676577" />
      <path d="M 41.922619,80.676577 A 3.175,1.856936981691969 -60.67332212426769 0,0 43.477697,80.534855" />
      <path d="M 44.61642,79.162617 A 3.175,1.856936981691969 -60.67332212426769 0,0 46.171498,79.020895" />
      <line x1="43.477697" y1="80.534855" x2="46.171498" y2="79.020895" />
      <path d="M 32.702491,83.964319 A 3.175,1.856936981691969 119.32667787573232 0,1 30.457657,87.852326" />
      <line x1="32.702491" y1="70.832449" x2="32.702491" y2="83.964319" />
      <path d="M 40.701478,60.394419 A 7.9375,4.642342454229922 -60.67332212426769 0,0 32.702491,70.832449" />
      <path d="M -32.961392,88.169124 C -33.29128,88.037575 -33.617795,87.841157 -33.918838,87.593915 C -34.441631,87.164218 -34.830724,86.63596 -35.08809,86.127285 C -35.384116,85.540443 -35.520832,84.966779 -35.521646,84.458388" />
      <line x1="-35.521646" y1="41.667012" x2="-35.521646" y2="84.458388" />
      <path d="M -45.109446,80.872631 C -45.255647,80.957463 -45.428154,80.990646 -45.626967,80.972179 C -45.870424,80.947054 -46.153111,80.823243 -46.433153,80.600874" />
      <path d="M -46.433153,80.600874 A 57.15,32.11264896124175 1.922472034434914e-15 0,1 -57.005413,61.993235" />
      <path d="M -57.005413,61.993235 A 57.15,32.11264896124175 1.922472034434914e-15 0,1 40.551608,39.283842" />
      <path d="M 38.24391,17.046548 A 57.15,32.11264896124175 1.922472034434914e-15 0,1 40.551608,18.27285" />
      <path d="M 35.81082,13.264343 C 35.811834,13.872102 36.007956,14.574102 36.43065,15.283377 C 36.675098,15.69202 37.001409,16.105441 37.398267,16.460353 C 37.660359,16.695148 37.952454,16.900512 38.24391,17.046548" />
      <line x1="35.81082" y1="-44.515885" x2="35.81082" y2="13.264343" />
      <path d="M 35.81082,-44.515885 C 35.812304,-45.184412 36.05052,-45.763504 36.571667,-46.062302" />
      <path d="M 36.571667,-46.062302 C 36.79547,-46.188147 37.073538,-46.25682 37.398267,-46.233527 C 37.660359,-46.215216 37.952454,-46.133423 38.24391,-45.986428" />
      <path d="M 38.24391,-45.986428 A 57.15,32.11264896124175 1.922472034434914e-15 0,1 40.551608,-44.760126" />
      <path d="M 40.551608,-55.265622 A 57.15,32.11264896124175 1.922472034434914e-15 0,1 57.294587,-32.556228" />
      <path d="M -57.005413,-32.556228 A 57.15,32.11264896124175 1.922472034434914e-15 0,1 40.551608,-55.265622" />
      <path d="M 40.551608,-44.760126 A 57.15,32.11264896124175 1.922472034434914e-15 0,1 42.734497,-43.463678" />
      <path d="M 44.791995,-39.470385 C 44.790613,-40.077914 44.636517,-40.803575 44.289677,-41.555463 C 43.964075,-42.268131 43.402609,-43.048294 42.734497,-43.463678" />
      <line x1="44.791995" y1="-39.470385" x2="44.791995" y2="18.309843" />
      <path d="M 44.791995,18.309843 C 44.790613,18.916239 44.636517,19.421522 44.289677,19.69847 C 44.253405,19.727101 44.214639,19.753053 44.173377,19.776325" />
      <path d="M 44.173377,19.776325 C 43.841654,19.968763 43.328004,19.944169 42.734497,19.569298" />
      <path d="M 40.551608,18.27285 A 57.15,32.11264896124175 1.922472034434914e-15 0,1 42.734497,19.569298" />
      <path d="M 40.551608,39.283842 A 57.15,32.11264896124175 1.922472034434914e-15 0,1 57.294587,61.993235" />
      <path d="M 57.294587,61.993235 A 57.15,32.11264896124175 1.922472034434914e-15 0,1 45.391699,81.610115" />
      <line x1="57.234551" y1="-20.895914" x2="57.234551" y2="36.884314" />
      <path d="M 57.234551,36.884314 C 57.234026,37.490361 57.224624,37.965795 57.192434,38.173541 C 57.182763,38.236553 57.170115,38.269608 57.15449,38.272705" />
      <path d="M 57.15449,38.272705 C 57.120491,38.277447 57.0693,38.107792 56.999887,37.725282" />
      <path d="M 56.005887,34.201196 A 57.15,32.11264896124175 1.922472034434914e-15 0,1 56.999887,37.725282" />
      <path d="M 55.246551,29.836141 C 55.246557,30.444086 55.314675,31.19433 55.452823,32.005999 C 55.532467,32.473813 55.636999,32.965894 55.757587,33.415277 C 55.837242,33.712466 55.923359,33.986881 56.005887,34.201196" />
      <line x1="55.246551" y1="-27.944087" x2="55.246551" y2="29.836141" />
      <path d="M 55.246551,-27.944087 C 55.246557,-28.550103 55.314675,-29.03074 55.452823,-29.247933 C 55.49479,-29.314132 55.542922,-29.350347 55.597218,-29.356577" />
      <path d="M 55.597218,-29.356577 C 55.713425,-29.370819 55.863155,-29.205941 56.005887,-28.83178" />
      <path d="M 56.005887,-28.83178 A 57.15,32.11264896124175 1.922472034434914e-15 0,1 56.999887,-25.307694" />
      <path d="M 57.234551,-20.895914 C 57.234026,-21.503792 57.224624,-22.259303 57.192434,-23.080391 C 57.162083,-23.858047 57.10187,-24.751711 56.999887,-25.307694" />
      <line x1="20.277066" y1="35.785964" x2="20.277066" y2="67.188942" />
      <line x1="-2.462627" y1="33.486277" x2="-2.462627" y2="68.771385" />
      <line x1="-47.581507" y1="-37.089358" x2="-47.581507" y2="20.69087" />
      <path d="M -47.581507,20.69087 C -47.582039,21.298746 -47.720923,22.030618 -48.015678,22.803769 C -48.292171,23.536486 -48.75621,24.356422 -49.259311,24.839172" />
      <path d="M -52.141572,28.018513 A 57.15,32.11264896124175 1.922472034434914e-15 0,1 -49.259311,24.839172" />
      <path d="M -53.346029,27.049553 C -53.345025,27.655751 -53.259121,28.139635 -53.059955,28.367969 C -53.011068,28.423762 -52.954667,28.461173 -52.890753,28.480201" />
      <path d="M -52.890753,28.480201 Q -52.759901,28.52041 -52.585457,28.429627 Q -52.38205,28.322006 -52.141572,28.018513" />
      <line x1="-53.346029" y1="-30.730675" x2="-53.346029" y2="27.049553" />
      <path d="M -53.346029,-30.730675 C -53.345025,-31.338438 -53.259121,-32.085434 -53.059955,-32.885964 C -52.944374,-33.347216 -52.7872,-33.829686 -52.585457,-34.264253 C -52.452249,-34.551664 -52.299494,-34.813913 -52.141572,-35.014463" />
      <path d="M -52.141572,-35.014463 A 57.15,32.11264896124175 1.922472034434914e-15 0,1 -49.259311,-38.193804" />
      <path d="M -47.581507,-37.089358 C -47.582039,-37.695407 -47.720923,-38.19448 -48.015678,-38.450164 C -48.087196,-38.512235 -48.169003,-38.556917 -48.261099,-38.584212" />
      <path d="M -48.261099,-38.584212 C -48.529178,-38.663491 -48.885818,-38.556157 -49.259311,-38.193804" />
      <line x1="-19.987892" y1="-49.478483" x2="-19.987892" y2="8.301745" />
      <path d="M -19.987892,8.301745 C -19.989278,8.90927 -20.223398,9.573041 -20.732512,10.199428 C -20.974348,10.496075 -21.292228,10.792836 -21.669726,11.041846 C -22.046399,11.291103 -22.48207,11.492528 -22.937299,11.605243" />
      <path d="M -28.594896,13.225439 A 57.15,32.11264896124175 1.922472034434914e-15 0,1 -22.937299,11.605243" />
      <path d="M -31.303085,11.542136 C -31.30227,12.04402 -31.159546,12.495445 -30.852046,12.836411" />
      <path d="M -30.852046,12.836411 C -30.573048,13.144588 -30.144202,13.364872 -29.561416,13.379051 C -29.266226,13.386339 -28.932947,13.336397 -28.594896,13.225439" />
      <line x1="-31.303085" y1="-46.238092" x2="-31.303085" y2="11.542136" />
      <path d="M -31.303085,-46.238092 C -31.301454,-46.845374 -31.094341,-47.538873 -30.633935,-48.218982 C -30.367276,-48.610448 -30.008431,-48.998707 -29.561416,-49.314828 C -29.266226,-49.524025 -28.932947,-49.697538 -28.594896,-49.807537" />
      <path d="M -28.594896,-49.807537 A 57.15,32.11264896124175 1.922472034434914e-15 0,1 -22.937299,-51.427732" />
      <path d="M -19.987892,-49.478483 C -19.98861,-49.980247 -20.149458,-50.451672 -20.490979,-50.830143" />
      <path d="M -20.490979,-50.830143 C -20.56314,-50.909939 -20.643651,-50.984726 -20.732512,-51.054505 C -20.974348,-51.244486 -21.292228,-51.398996 -21.669726,-51.472822 C -22.046399,-51.547337 -22.48207,-51.540954 -22.937299,-51.427732" />
      <line x1="15.295646" y1="-50.387955" x2="15.295646" y2="7.392273" />
      <path d="M 15.295646,7.392273 Q 15.295751,7.688931 15.217159,7.969234" />
      <path d="M 15.217159,7.969234 C 15.107356,8.357498 14.883274,8.719123 14.524996,9.013309 C 14.273557,9.219897 13.941985,9.398086 13.544956,9.505689 C 13.148826,9.613853 12.68767,9.651542 12.201209,9.592331" />
      <path d="M 5.929286,9.034521 A 57.15,32.11264896124175 1.922472034434914e-15 0,1 12.201209,9.592331" />
      <path d="M 2.751801,6.276655 C 2.753435,6.88393 3.002649,7.504624 3.548435,8.037081 C 3.864316,8.343424 4.287766,8.619959 4.809308,8.807196 C 5.153727,8.931258 5.540229,9.012729 5.929286,9.034521" />
      <line x1="2.751801" y1="-51.503573" x2="2.751801" y2="6.276655" />
      <path d="M 2.751801,-51.503573 Q 2.751701,-51.80025 2.833098,-52.090507" />
      <path d="M 2.833098,-52.090507 C 2.946771,-52.492507 3.178858,-52.882577 3.548435,-53.216851 C 3.864316,-53.501962 4.287766,-53.747395 4.809308,-53.886684 C 5.153727,-53.979106 5.540229,-54.021206 5.929286,-53.998454" />
      <path d="M 5.929286,-53.998454 A 57.15,32.11264896124175 1.922472034434914e-15 0,1 12.201209,-53.440645" />
      <path d="M 15.295646,-50.387955 C 15.293936,-50.99492 15.054005,-51.648642 14.524996,-52.240623 C 14.273557,-52.520663 13.941985,-52.793746 13.544956,-53.008979 C 13.148826,-53.224587 12.68767,-53.38194 12.201209,-53.440645" />
      <path d="M 14.295962,-46.839022 C 14.296628,-47.146333 14.220222,-47.423427 14.089122,-47.645552 C 13.999934,-47.795078 13.891649,-47.922049 13.764268,-48.026463 C 13.485709,-48.257076 13.13983,-48.383385 12.774447,-48.43795" />
      <path d="M 12.774447,-48.43795 C 12.123712,-48.532127 11.410113,-48.409749 10.709367,-48.144528" />
      <line x1="12.201209" y1="-53.440645" x2="10.709367" y2="-48.144528" />
      <path d="M 2.751801,-49.310347 Q 2.839629,-49.318694 2.930164,-49.315743" />
      <path d="M 2.930164,-49.315743 C 3.409226,-49.298402 3.929198,-49.067789 4.437445,-48.702337" />
      <line x1="5.929286" y1="-53.998454" x2="4.437445" y2="-48.702337" />
      <line x1="-22.937299" y1="-51.427732" x2="-19.987892" y2="-48.175969" />
      <path d="M -28.399431,-43.036771 C -28.402443,-43.554335 -28.149852,-44.009946 -27.78892,-44.325932 C -27.526806,-44.558761 -27.211103,-44.730139 -26.874721,-44.853" />
      <path d="M -26.874721,-44.853 C -26.069234,-45.142742 -25.15659,-45.173166 -24.261736,-45.030166" />
      <line x1="-28.594896" y1="-49.807537" x2="-24.261736" y2="-45.030166" />
      <line x1="-49.259311" y1="-38.193804" x2="-47.644189" y2="-37.731507" />
      <path d="M -47.648134,-29.099764 Q -47.647689,-29.345084 -47.581507,-29.595691" />
      <line x1="-52.141572" y1="-35.014463" x2="-47.581507" y2="-33.709233" />
      <path d="M -47.648134,-19.777459 L -47.581507,-19.753085" />
      <line x1="-47.648134" y1="-19.600842" x2="-47.581507" y2="-19.606775" />
      <path d="M -47.648134,-14.495594 L -47.581507,-14.602782" />
      <line x1="-47.648134" y1="-15.988235" x2="-47.581507" y2="-15.994168" />
      <line x1="56.999887" y1="-25.307694" x2="55.246551" y2="-25.15155" />
      <line x1="56.005887" y1="-28.83178" x2="55.302264" y2="-28.769119" />
      <path d="M 40.270817,-36.929411 C 40.271598,-37.236458 40.181304,-37.543986 40.026142,-37.818375 C 39.818503,-38.187102 39.504472,-38.49672 39.151384,-38.744584" />
      <path d="M 39.151384,-38.744584 C 38.674198,-39.078472 38.125491,-39.307624 37.561803,-39.456922 C 37.044308,-39.59127 36.519536,-39.66288 35.987487,-39.671751" />
      <line x1="42.734497" y1="-43.463678" x2="35.987487" y2="-39.671751" />
      <path d="M 2.751801,-25.622146 A 3.96875,2.2300450667528997 -180.0 0,0 4.057404,-26.9304" />
      <path d="M 8.443897,-24.677106 A 9.524999999999999,5.352108160206958 1.922472034434914e-15 0,1 2.751801,-22.155777" />
      <path d="M 6.879091,-25.835631 A 9.52500000000005,5.352108160206987 180.0 0,0 2.751801,-27.198436" />
      <path d="M 2.751801,-16.903029 A 9.52500000000005,5.352108160206987 180.0 0,0 9.669587,-22.050733" />
      <path d="M 9.669587,-22.050733 A 9.52500000000005,5.352108160206987 180.0 0,0 6.879091,-25.835631" />
      <path d="M 10.709367,-48.144528 A 47.625,26.760540801034793 1.922472034434914e-15 0,1 14.0937,-47.637681" />
      <line x1="38.24391" y1="-45.986428" x2="35.812821" y2="-44.620117" />
      <path d="M 35.987487,-39.671751 A 47.625,26.760540801034793 1.922472034434914e-15 0,1 40.270817,-36.464633" />
      <path d="M 40.270817,-7.636832 A 47.625,26.760540801034793 1.922472034434914e-15 0,1 35.81082,-4.316894" />
      <path d="M 14.295962,3.501125 A 47.625,26.760540801034793 1.922472034434914e-15 0,1 2.751801,4.669678" />
      <path d="M -19.987892,2.201169 A 47.625,26.760540801034793 1.922472034434914e-15 0,1 -28.399431,-0.629254" />
      <path d="M -28.332282,-43.500409 A 47.625,26.760540801034793 1.922472034434914e-15 0,1 -24.261736,-45.030166" />
      <path d="M 2.751801,-48.771143 A 47.625,26.760540801034793 1.922472034434914e-15 0,1 4.437445,-48.702337" />
      <line x1="32.702491" y1="70.832449" x2="30.015954" y2="69.323189" />
      <path d="M -19.987892,6.782913 A 50.8,28.54457685443711 1.922472034434914e-15 0,1 -28.399431,4.188054" />
      <path d="M -47.581507,-9.645665 A 50.8,28.54457685443711 1.922472034434914e-15 0,1 -47.648134,-9.748953" />
      <path d="M 14.295962,7.990305 A 50.8,28.54457685443711 1.922472034434914e-15 0,1 5.393493,8.967438" />
      <path d="M 40.270817,-1.919306 A 50.8,28.54457685443711 1.922472034434914e-15 0,1 35.81082,0.901865" />
      <line x1="-28.399875" y1="85.605479" x2="-32.961392" y2="88.169124" />
      <line x1="30.457657" y1="87.852326" x2="27.342301" y2="86.102162" />
      <line x1="35.065461" y1="87.413626" x2="33.151458" y2="86.338366" />
      <line x1="37.536045" y1="83.652442" x2="35.396293" y2="82.450359" />
      <line x1="45.391699" y1="81.610115" x2="43.477697" y2="80.534855" />
      <line x1="15.295646" y1="-50.387955" x2="14.295962" y2="-46.839022" />
      <line x1="-31.303085" y1="-46.238092" x2="-28.399431" y2="-43.036771" />
      <line x1="-53.346029" y1="-30.730675" x2="-47.648134" y2="-29.099764" />
      <line x1="57.234551" y1="-20.895914" x2="55.246551" y2="-20.718872" />
      <line x1="44.791995" y1="-39.470385" x2="40.270817" y2="-36.929411" />
      <line x1="32.702491" y1="83.964319" x2="30.015954" y2="82.455059" />
      <line x1="46.171498" y1="79.020895" x2="43.056142" y2="77.270731" />
      <line x1="44.791995" y1="18.309843" x2="42.647747" y2="19.514944" />
      <line x1="57.234551" y1="36.884314" x2="56.835448" y2="36.919856" />
      <line x1="44.376346" y1="55.020683" x2="42.172786" y2="54.389957" />
      <line x1="19.215432" y1="67.239528" x2="17.373412" y2="65.208674" />
      <line x1="-1.78457" y1="68.027948" x2="-1.462942" y2="66.886151" />
      <line x1="-53.346029" y1="27.049553" x2="-51.733686" y2="27.511055" />
      <line x1="-31.303085" y1="11.542136" x2="-29.639794" y2="13.375939" />
      <line x1="15.295646" y1="7.392273" x2="14.98559" y2="8.492989" />
      <line x1="-41.871637" y1="78.037229" x2="-46.433153" y2="80.600874" />
      <line x1="-31.000468" y1="81.917414" x2="-35.521646" y2="84.458388" />
      <line x1="44.006471" y1="81.847257" x2="41.922619" y2="80.676577" />
      <line x1="57.294587" y1="-32.556228" x2="57.294587" y2="61.993235" />
      <line x1="-57.005413" y1="-32.556228" x2="-57.005413" y2="61.993235" />
      <line x1="44.61642" y1="79.162617" x2="41.813849" y2="77.588172" />
      <line x1="-40.577699" y1="78.325716" x2="-45.109446" y2="80.872631" />
    </g>
    <g fill="none" stroke="rgb(160,160,160)" stroke-width="0.2" id="hidden" stroke-dasharray="0.00508 0.60254">
      <line x1="-31.000468" y1="13.63169" x2="-31.000468" y2="39.442683" />
      <path d="M -31.000468,13.63169 C -31.001451,13.023769 -31.200409,12.32309 -31.62774,11.616838 C -31.837987,11.270754 -32.106381,10.92316 -32.428581,10.608986 C -32.736315,10.308003 -33.09651,10.040762 -33.457251,9.862801" />
      <path d="M -33.457251,9.862801 A 50.8,28.54457685443711 1.922472034434914e-15 0,1 -37.947838,7.340051" />
      <path d="M -37.947838,7.340051 C -38.215296,7.170155 -38.470369,7.065362 -38.713058,7.025674 C -38.9761,6.98346 -39.196039,7.02578 -39.372029,7.124768" />
      <path d="M -39.372029,7.124768 C -39.796143,7.368876 -39.979609,7.917063 -39.981642,8.58619" />
      <line x1="-39.981642" y1="8.58619" x2="-39.981642" y2="44.488183" />
      <path d="M 33.746426,19.574206 A 50.8,28.54457685443711 1.922472034434914e-15 0,1 36.061939,20.796116" />
      <path d="M 31.289643,15.805317 C 31.290613,16.413244 31.489597,17.113915 31.916915,17.820169 C 32.164183,18.227385 32.493959,18.638802 32.894251,18.991683 C 33.158628,19.225145 33.452985,19.429217 33.746426,19.574206" />
      <line x1="31.289643" y1="-41.974911" x2="31.289643" y2="15.805317" />
      <line x1="14.295962" y1="9.178771" x2="14.295962" y2="10.941206" />
      <path d="M 14.295962,10.941206 Q 14.296065,11.237873 14.217653,11.517534" />
      <path d="M 14.217653,11.517534 C 14.108069,11.905037 13.884406,12.264851 13.526957,12.556401 C 13.275916,12.761294 12.944976,12.937222 12.548633,13.042536 C 12.153185,13.148406 11.692746,13.183801 11.206763,13.122665" />
      <path d="M 4.934841,12.564856 A 50.8,28.54457685443711 1.922472034434914e-15 0,1 11.206763,13.122665" />
      <path d="M 1.752117,9.825588 C 1.753721,10.433045 2.003769,11.051735 2.550396,11.580173 C 2.866978,11.884446 3.291195,12.158204 3.813418,12.342658 C 4.158308,12.464885 4.545275,12.544566 4.934841,12.564856" />
      <line x1="1.752117" y1="-47.95464" x2="1.752117" y2="9.825588" />
      <line x1="-17.084238" y1="-46.277163" x2="-17.084238" y2="11.503065" />
      <path d="M -17.084238,11.503065 C -17.085586,12.110766 -17.32165,12.77278 -17.833637,13.395479 C -18.077021,13.69064 -18.396701,13.985353 -18.776015,14.232282 C -19.154506,14.479452 -19.592002,14.678785 -20.048862,14.789787" />
      <path d="M -25.706458,16.409983 A 50.8,28.54457685443711 1.922472034434914e-15 0,1 -20.048862,14.789787" />
      <path d="M -28.399431,14.743456 C -28.398621,15.245441 -28.256948,15.695626 -27.95169,16.034096" />
      <path d="M -27.95169,16.034096 C -27.674499,16.34027 -27.248464,16.557285 -26.668784,16.568221 C -26.375117,16.573864 -26.043348,16.522323 -25.706458,16.409983" />
      <line x1="-28.399431" y1="13.16183" x2="-28.399431" y2="14.743456" />
      <line x1="-41.883612" y1="-35.458446" x2="-41.883612" y2="22.321782" />
      <path d="M -41.883612,22.321782 C -41.8841,22.929818 -42.026484,23.660927 -42.327161,24.431996 C -42.609438,25.163336 -43.081944,25.980438 -43.591275,26.461537" />
      <path d="M -46.473537,29.640878 A 50.8,28.54457685443711 1.922472034434914e-15 0,1 -43.591275,26.461537" />
      <path d="M -47.648134,28.680464 C -47.647109,29.286847 -47.564484,29.769726 -47.371438,29.996196 C -47.32402,30.051572 -47.269224,30.088524 -47.20705,30.10705" />
      <path d="M -47.20705,30.10705 Q -47.079757,30.146235 -46.909189,30.054348 Q -46.710308,29.945478 -46.473537,29.640878" />
      <line x1="-47.648134" y1="21.464757" x2="-47.648134" y2="28.680464" />
      <line x1="-50.629642" y1="-18.515252" x2="-50.629642" y2="39.264976" />
      <path d="M -50.629642,39.264976 C -50.629085,39.873021 -50.623403,40.629049 -50.59792,41.450378 C -50.582794,41.924075 -50.559874,42.423367 -50.522005,42.880037 C -50.497019,43.182055 -50.465115,43.461287 -50.428076,43.679703" />
      <path d="M -49.434076,47.203789 A 50.8,28.54457685443711 1.922472034434914e-15 0,1 -50.428076,43.679703" />
      <path d="M -48.641642,46.313148 C -48.641606,46.919323 -48.713523,47.400272 -48.85831,47.61792 C -48.901866,47.683957 -48.952238,47.720371 -49.009426,47.727163" />
      <path d="M -49.009426,47.727163 C -49.132949,47.739862 -49.285369,47.579295 -49.434076,47.203789" />
      <line x1="-48.641642" y1="-11.46708" x2="-48.641642" y2="46.313148" />
      <line x1="-14.006787" y1="7.990305" x2="-14.006787" y2="34.578572" />
      <line x1="-1.462942" y1="9.105923" x2="-1.462942" y2="33.462954" />
      <line x1="17.373412" y1="7.428446" x2="17.373412" y2="35.140431" />
      <line x1="28.688606" y1="4.188054" x2="28.688606" y2="38.380822" />
      <line x1="42.172786" y1="-3.390271" x2="42.172786" y2="45.959148" />
      <path d="M 47.937309,48.031274 C 47.936285,48.639158 47.853657,49.38737 47.660613,50.189247 C 47.567623,50.573291 47.443075,50.982906 47.288802,51.360631" />
      <line x1="47.937309" y1="-9.748953" x2="47.937309" y2="48.031274" />
      <line x1="50.918817" y1="-20.333465" x2="50.918817" y2="37.446763" />
      <path d="M 50.918817,37.446763 C 50.918259,38.052991 50.912577,38.528041 50.887095,38.735065 C 50.879436,38.797905 50.869029,38.83076 50.855873,38.83363" />
      <path d="M 50.855873,38.83363 C 50.827184,38.837884 50.781996,38.667767 50.717251,38.284784" />
      <path d="M 49.723251,34.760698 A 50.8,28.54457685443711 1.922472034434914e-15 0,1 50.717251,38.284784" />
      <path d="M 48.930817,30.398591 C 48.930782,31.006688 49.002697,31.756819 49.147484,32.567523 C 49.23099,33.03513 49.340364,33.526723 49.465825,33.975592 C 49.548706,34.272454 49.638019,34.546573 49.723251,34.760698" />
      <line x1="48.930817" y1="-27.381637" x2="48.930817" y2="30.398591" />
      <line x1="40.270817" y1="18.116194" x2="40.270817" y2="20.850817" />
      <path d="M 40.270817,20.850817 C 40.269427,21.4574 40.117849,21.961162 39.775941,22.235262 C 39.740162,22.263616 39.701916,22.289275 39.661203,22.312239" />
      <path d="M 39.661203,22.312239 C 39.333802,22.5022 38.826256,22.474294 38.237013,22.096956" />
      <path d="M 36.061939,20.796116 A 50.8,28.54457685443711 1.922472034434914e-15 0,1 38.237013,22.096956" />
      <path d="M 41.14635,65.261689 C 41.511655,65.139397 41.843193,65.114786 42.11627,65.165118 C 42.27017,65.193887 42.408365,65.243108 42.530858,65.312782" />
      <path d="M 42.530858,65.312782 C 42.826006,65.479148 43.034141,65.748317 43.170754,66.078836 C 43.307026,66.410171 43.372364,66.803563 43.372614,67.240327" />
      <line x1="43.372614" y1="67.240327" x2="41.232863" y2="66.038244" />
      <line x1="43.372614" y1="67.240327" x2="43.372614" y2="80.372197" />
      <path d="M 43.372614,80.372197 C 43.373701,81.040287 43.572877,81.597841 44.006471,81.847257" />
      <line x1="43.926664" y1="64.524284" x2="43.926664" y2="77.656154" />
      <path d="M 43.926664,77.656154 A 3.175,1.856936981691969 -60.67332212426769 0,0 44.61642,79.162617" />
      <path d="M 43.926664,64.524284 A 7.9375,4.642342454229922 -60.67332212426769 0,0 42.202274,60.758126" />
      <path d="M 42.202274,60.758126 A 7.9375,4.642342454229922 -60.67332212426769 0,0 40.701478,60.394419" />
      <line x1="-35.521646" y1="16.172664" x2="-35.521646" y2="41.667012" />
      <path d="M -35.521646,16.172664 C -35.522672,15.564911 -35.718768,14.862903 -36.141476,14.15363 C -36.349333,13.806321 -36.614882,13.457102 -36.93418,13.141205 C -37.239105,12.838597 -37.59644,12.569698 -37.954735,12.390459" />
      <path d="M -37.954735,12.390459 A 57.15,32.11264896124175 1.922472034434914e-15 0,1 -42.445322,9.867709" />
      <path d="M -42.445322,9.867709 C -42.714785,9.69894 -42.97214,9.59543 -43.217389,9.55718 C -43.483227,9.516512 -43.705901,9.560393 -43.884203,9.660682" />
      <path d="M -43.884203,9.660682 C -44.314259,9.908192 -44.500803,10.458296 -44.50282,11.127164" />
      <line x1="-44.50282" y1="11.127164" x2="-44.50282" y2="79.412888" />
      <path d="M -44.50282,79.412888 C -44.50374,80.081506 -44.695308,80.634284 -45.109446,80.872631" />
      <path d="M 57.294587,-32.556228 A 57.15,32.11264896124175 1.922472034434914e-15 0,1 -57.005413,-32.556228" />
      <line x1="47.870681" y1="-1.759359" x2="47.870681" y2="56.020868" />
      <path d="M 47.870681,56.020868 C 47.871217,56.626933 48.010094,57.12598 48.304852,57.381675 C 48.377103,57.444155 48.45891,57.488838 48.550274,57.515723" />
      <path d="M 48.550274,57.515723 C 48.675244,57.55333 48.816341,57.54773 48.973563,57.498922 C 49.15317,57.441276 49.35194,57.315769 49.548485,57.125315" />
      <path d="M 52.430747,53.945974 A 57.15,32.11264896124175 1.922472034434914e-15 0,1 49.548485,57.125315" />
      <path d="M 53.635204,49.662186 C 53.634202,50.269928 53.548294,51.016963 53.34913,51.817475 C 53.162092,52.575796 52.835422,53.435052 52.430747,53.945974" />
      <line x1="53.635204" y1="-8.118042" x2="53.635204" y2="49.662186" />
      <path d="M 53.635204,-8.118042 C 53.634202,-8.724225 53.548294,-9.208135 53.34913,-9.436458 C 53.300747,-9.491907 53.244346,-9.529318 53.179928,-9.54869" />
      <path d="M 53.179928,-9.54869 C 52.992336,-9.604931 52.731029,-9.47031 52.430747,-9.087002" />
      <path d="M 52.430747,-9.087002 A 57.15,32.11264896124175 1.922472034434914e-15 0,1 49.548485,-5.907661" />
      <path d="M 47.870681,-1.759359 C 47.871217,-2.367256 48.010094,-3.09909 48.304852,-3.872258 C 48.475183,-4.31784 48.701617,-4.780485 48.973563,-5.194958 C 49.15317,-5.469088 49.35194,-5.718166 49.548485,-5.907661" />
      <line x1="20.277066" y1="10.629766" x2="20.277066" y2="35.785964" />
      <line x1="20.277066" y1="67.188942" x2="20.277066" y2="68.409994" />
      <path d="M 20.277066,68.409994 C 20.277787,68.911775 20.438633,69.383179 20.780154,69.761654" />
      <path d="M 20.780154,69.761654 C 21.089682,70.103491 21.563643,70.373514 22.193176,70.439233 C 22.512011,70.472589 22.868739,70.448501 23.226474,70.359243" />
      <path d="M 28.88407,68.739047 A 57.15,32.11264896124175 1.922472034434914e-15 0,1 23.226474,70.359243" />
      <path d="M 31.59226,65.169602 C 31.590634,65.776864 31.38351,66.470399 30.923109,67.150493 C 30.704203,67.472419 30.41499,67.800786 30.067032,68.082365 C 29.719878,68.364166 29.314247,68.598711 28.88407,68.739047" />
      <line x1="31.59226" y1="7.389375" x2="31.59226" y2="65.169602" />
      <path d="M 31.59226,7.389375 C 31.591448,6.887507 31.448722,6.436062 31.141221,6.095099" />
      <path d="M 31.141221,6.095099 C 31.076228,6.023205 31.003524,5.957026 30.923109,5.89656 C 30.704203,5.731859 30.41499,5.608954 30.067032,5.567697 C 29.719878,5.525726 29.314247,5.565229 28.88407,5.706072" />
      <path d="M 28.88407,5.706072 A 57.15,32.11264896124175 1.922472034434914e-15 0,1 23.226474,7.326267" />
      <path d="M 20.277066,10.629766 C 20.278458,10.022221 20.512567,9.358485 21.021687,8.732083 C 21.316246,8.371378 21.710386,8.022032 22.193176,7.745354 C 22.512011,7.562225 22.868739,7.414566 23.226474,7.326267" />
      <line x1="-15.006472" y1="11.539238" x2="-15.006472" y2="69.319466" />
      <path d="M -15.006472,69.319466 C -15.004755,69.92645 -14.764836,70.580138 -14.235821,71.172134 C -13.929546,71.512578 -13.518248,71.832251 -13.009022,72.063214 C -12.672744,72.216176 -12.294315,72.326307 -11.912034,72.372156" />
      <path d="M -5.640112,72.929965 A 57.15,32.11264896124175 1.922472034434914e-15 0,1 -11.912034,72.372156" />
      <path d="M -2.462627,70.435084 Q -2.462525,70.731754 -2.543923,71.022018" />
      <path d="M -2.543923,71.022018 C -2.657596,71.424021 -2.889692,71.814096 -3.25926,72.148362 C -3.518593,72.382975 -3.860035,72.596202 -4.267234,72.739909 C -4.673527,72.884151 -5.145026,72.958557 -5.640112,72.929965" />
      <line x1="-2.462627" y1="12.654856" x2="-2.462627" y2="33.486277" />
      <line x1="-2.462627" y1="68.771385" x2="-2.462627" y2="70.435084" />
      <path d="M -2.462627,12.654856 C -2.464255,12.047599 -2.71348,11.426872 -3.25926,10.89443 C -3.518593,10.642415 -3.860035,10.404369 -4.267234,10.225241 C -4.673527,10.045711 -5.145026,9.925075 -5.640112,9.896989" />
      <path d="M -5.640112,9.896989 A 57.15,32.11264896124175 1.922472034434914e-15 0,1 -11.912034,9.33918" />
      <path d="M -15.006472,11.539238 Q -15.006576,11.242574 -14.927984,10.962277" />
      <path d="M -14.927984,10.962277 C -14.818181,10.574016 -14.594108,10.212396 -14.235821,9.918202 C -13.929546,9.667192 -13.518248,9.464897 -13.009022,9.369334 C -12.672744,9.305812 -12.294315,9.292372 -11.912034,9.33918" />
      <line x1="-56.945376" y1="-17.952803" x2="-56.945376" y2="39.827425" />
      <path d="M -56.945376,39.827425 C -56.944851,40.435324 -56.93545,41.190796 -56.903259,42.011902 C -56.884301,42.48512 -56.856539,42.984038 -56.813767,43.440351 C -56.785542,43.74212 -56.750429,44.021077 -56.710713,44.239205" />
      <path d="M -55.716712,47.763291 A 57.15,32.11264896124175 1.922472034434914e-15 0,1 -56.710713,44.239205" />
      <path d="M -54.957376,46.875597 C -54.95738,47.481599 -55.025502,47.962261 -55.163648,48.179444 C -55.205179,48.245293 -55.253311,48.281508 -55.308043,48.288088" />
      <path d="M -55.308043,48.288088 C -55.426254,48.300329 -55.572712,48.139159 -55.716712,47.763291" />
      <line x1="-54.957376" y1="-10.90463" x2="-54.957376" y2="46.875597" />
      <path d="M -54.957376,-10.90463 C -54.95738,-11.512554 -55.025502,-12.262836 -55.163648,-13.074488 C -55.293155,-13.843314 -55.505633,-14.723418 -55.716712,-15.269685" />
      <path d="M -55.716712,-15.269685 A 57.15,32.11264896124175 1.922472034434914e-15 0,1 -56.710713,-18.793771" />
      <path d="M -56.945376,-17.952803 C -56.944851,-18.558865 -56.93545,-19.034273 -56.903259,-19.24203 C -56.893475,-19.305363 -56.880827,-19.338418 -56.865315,-19.341194" />
      <path d="M -56.865315,-19.341194 C -56.832031,-19.348052 -56.779639,-19.174505 -56.710713,-18.793771" />
      <path d="M 1.752117,-47.95464 Q 1.752815,-48.257234 1.820849,-48.496969" />
      <path d="M 1.820849,-48.496969 C 1.97758,-49.0445 2.351786,-49.272578 2.751801,-49.310347" />
      <path d="M -17.084238,-46.277163 C -17.08394,-46.584651 -17.117274,-46.841709 -17.174237,-47.029498 C -17.220464,-47.178658 -17.277672,-47.289693 -17.34586,-47.362604" />
      <path d="M -17.34586,-47.362604 C -17.454897,-47.482333 -17.58374,-47.51283 -17.718574,-47.483713" />
      <path d="M -17.718574,-47.483713 C -18.001419,-47.419446 -18.308806,-47.107317 -18.60414,-46.650362" />
      <line x1="-19.987892" y1="-48.175969" x2="-18.60414" y2="-46.650362" />
      <path d="M -41.883612,-35.458446 C -41.883796,-35.765954 -41.861325,-36.021029 -41.822393,-36.205526 C -41.779001,-36.412732 -41.716432,-36.536406 -41.644486,-36.597525" />
      <path d="M -41.644486,-36.597525 Q -41.558322,-36.667772 -41.457662,-36.63686" />
      <path d="M -41.457662,-36.63686 C -41.247314,-36.573281 -41.004541,-36.241424 -40.75627,-35.759974" />
      <line x1="-47.644189" y1="-37.731507" x2="-40.75627" y2="-35.759974" />
      <path d="M -47.581507,-29.595691 C -47.509814,-29.868749 -47.382553,-30.136187 -47.221455,-30.382466" />
      <path d="M -47.221455,-30.382466 C -46.993399,-30.7311 -46.700898,-31.038505 -46.382833,-31.302312 C -45.991359,-31.626377 -45.560063,-31.887286 -45.116779,-32.093957 C -44.631764,-32.317585 -44.139015,-32.47981 -43.638531,-32.580633" />
      <line x1="-47.581507" y1="-33.709233" x2="-43.638531" y2="-32.580633" />
      <path d="M -50.629642,-18.515252 C -50.630238,-18.822618 -50.560546,-19.094519 -50.44059,-19.308025 C -50.359007,-19.45167 -50.259735,-19.57167 -50.142774,-19.668026 C -49.880049,-19.886725 -49.550959,-19.992192 -49.201096,-20.023733" />
      <path d="M -49.201096,-20.023733 C -48.713799,-20.066024 -48.183205,-19.968559 -47.648134,-19.777459" />
      <path d="M -47.581507,-19.753085 Q -47.433806,-19.697948 -47.285663,-19.633122" />
      <line x1="-56.710713" y1="-18.793771" x2="-47.648134" y2="-19.600842" />
      <line x1="-47.581507" y1="-19.606775" x2="-47.285663" y2="-19.633122" />
      <path d="M -48.641642,-11.46708 C -48.643263,-11.982751 -48.503777,-12.598426 -48.302585,-13.143897 C -48.12043,-13.641482 -47.891985,-14.09576 -47.648134,-14.495594" />
      <path d="M -47.581507,-14.602782 C -47.178397,-15.238008 -46.735952,-15.739098 -46.291663,-16.109035" />
      <line x1="-55.716712" y1="-15.269685" x2="-47.648134" y2="-15.988235" />
      <line x1="-47.581507" y1="-15.994168" x2="-46.291663" y2="-16.109035" />
      <path d="M -14.006787,7.990305 Q -14.00587,7.686932 -13.915735,7.368739" />
      <path d="M -13.915735,7.368739 C -13.823294,7.040205 -13.665999,6.717564 -13.475093,6.421708 C -13.292865,6.142924 -13.088927,5.886848 -12.863277,5.65348 C -12.123965,4.888061 -11.258811,4.365152 -10.420192,4.043063" />
      <line x1="-11.912034" y1="9.33918" x2="-10.420192" y2="4.043063" />
      <path d="M -1.462942,9.105923 C -1.462435,8.799177 -1.520143,8.455705 -1.619038,8.11925 C -1.780726,7.568327 -2.039941,7.04512 -2.324093,6.590809 C -2.879474,5.710243 -3.526051,5.052884 -4.14827,4.600872" />
      <line x1="-5.640112" y1="9.896989" x2="-4.14827" y2="4.600872" />
      <path d="M 17.373412,7.428446 C 17.373114,7.121772 17.406448,6.770192 17.463411,6.419858 C 17.55655,5.84624 17.705481,5.286686 17.8675,4.792641 C 18.184319,3.834401 18.548712,3.08701 18.893314,2.548897" />
      <line x1="23.226474" y1="7.326267" x2="18.893314" y2="2.548897" />
      <path d="M 28.688606,4.188054 C 28.689367,3.881077 28.601723,3.564142 28.451218,3.273221 C 28.329164,3.040461 28.177458,2.82524 27.996102,2.62756" />
      <path d="M 27.996102,2.62756 C 27.465366,2.047264 26.772554,1.635507 26.067166,1.34965 C 25.567857,1.150742 25.062438,1.010426 24.550911,0.928701" />
      <line x1="28.88407" y1="5.706072" x2="24.550911" y2="0.928701" />
      <path d="M 42.172786,-3.390271 C 42.172971,-3.696924 42.1505,-4.050488 42.111568,-4.404114 C 42.047934,-4.983119 41.944908,-5.551054 41.828727,-6.053467 C 41.60204,-7.028163 41.326485,-7.791774 41.045445,-8.341491" />
      <line x1="49.548485" y1="-5.907661" x2="41.045445" y2="-8.341491" />
      <path d="M 47.937309,-9.748953 C 47.940172,-10.266773 47.697855,-10.704617 47.350443,-10.997222 C 47.074344,-11.233298 46.73656,-11.39274 46.376491,-11.496042" />
      <path d="M 46.376491,-11.496042 C 45.61972,-11.709282 44.769283,-11.690334 43.927706,-11.520832" />
      <line x1="52.430747" y1="-9.087002" x2="43.927706" y2="-11.520832" />
      <path d="M 50.918817,-20.333465 L 50.915223,-20.458374" />
      <path d="M 50.915223,-20.458374 C 50.889029,-20.944147 50.696892,-21.474336 50.431948,-21.936729 C 50.265704,-22.225268 50.079002,-22.492175 49.87184,-22.737452 C 49.187514,-23.548378 48.375661,-24.115201 47.574838,-24.468343" />
      <line x1="55.246551" y1="-25.15155" x2="47.574838" y2="-24.468343" />
      <path d="M 48.930817,-27.381637 C 48.931429,-27.729973 48.868901,-28.017607 48.764747,-28.220147" />
      <path d="M 48.764747,-28.220147 C 48.573362,-28.591478 48.264336,-28.702755 47.932999,-28.674038" />
      <path d="M 47.932999,-28.674038 C 47.51379,-28.634406 47.048063,-28.379036 46.580838,-27.99243" />
      <line x1="55.302264" y1="-28.769119" x2="46.580838" y2="-27.99243" />
      <path d="M -2.661456,-30.979187 A 3.96875,2.2300450667528997 -180.0 0,0 4.113337,-32.556228" />
      <path d="M 4.113337,-32.556228 A 3.96875,2.2300450667528997 -180.0 0,0 -3.824163,-32.556228" />
      <path d="M -3.824163,-32.556228 A 3.96875,2.2300450667528997 -180.0 0,0 -2.661456,-30.979187" />
      <path d="M 18.664472,-42.9647 A 2.3812499999999996,1.3380270400517396 -180.0 0,0 22.729348,-43.910925" />
      <path d="M 22.729348,-43.910925 A 2.3812500000000014,1.3380270400517404 -180.0 0,0 17.966848,-43.910925" />
      <path d="M 17.966848,-43.910925 A 2.3812499999999996,1.3380270400517396 -180.0 0,0 18.664472,-42.9647" />
      <path d="M 18.664472,-36.398765 A 2.3812499999999996,1.3380270400517396 -180.0 0,0 22.729348,-37.34499" />
      <path d="M 22.729348,-37.34499 A 2.3812500000000014,1.3380270400517404 -180.0 0,0 17.966848,-37.34499" />
      <path d="M 17.966848,-37.34499 A 2.3812499999999996,1.3380270400517396 -180.0 0,0 18.664472,-36.398765" />
      <path d="M 23.154141,-38.922031 A 3.96875,2.2300450667528997 1.922472034434914e-15 0,1 24.316848,-37.34499" />
      <path d="M 24.316848,-37.34499 A 3.96875,2.2300450667528997 1.922472034434914e-15 0,1 16.379348,-37.34499" />
      <path d="M 16.379348,-37.34499 A 3.96875,2.2300450667528997 1.922472034434914e-15 0,1 23.154141,-38.922031" />
      <path d="M 23.154141,-34.98247 A 3.9687500000000178,2.2300450667529095 -180.0 0,0 16.379348,-33.405429" />
      <path d="M 16.379348,-33.405429 A 3.9687500000000178,2.2300450667529095 -180.0 1,0 24.316848,-33.405429" />
      <path d="M 24.316848,-33.405429 A 3.9687500000000178,2.2300450667529095 -180.0 0,0 23.154141,-34.98247" />
      <path d="M -2.661456,-25.726439 A 3.96875,2.2300450667528997 -180.0 0,0 2.751801,-25.622146" />
      <path d="M 4.057404,-26.9304 A 3.96875,2.2300450667528997 -180.0 0,0 4.113337,-27.30348" />
      <path d="M 4.113337,-27.30348 A 3.96875,2.2300450667528997 -180.0 0,0 -3.824163,-27.30348" />
      <path d="M -3.824163,-27.30348 A 3.96875,2.2300450667528997 -180.0 0,0 -2.661456,-25.726439" />
      <path d="M 6.879091,-31.088379 A 9.524999999999999,5.352108160206958 1.922472034434914e-15 0,1 9.669587,-27.30348" />
      <path d="M 9.669587,-27.30348 A 9.524999999999999,5.352108160206958 1.922472034434914e-15 0,1 8.443897,-24.677106" />
      <path d="M 2.751801,-22.155777 A 9.524999999999999,5.352108160206958 1.922472034434914e-15 0,1 -9.380413,-27.30348" />
      <path d="M -9.380413,-27.30348 A 9.524999999999999,5.352108160206958 1.922472034434914e-15 0,1 6.879091,-31.088379" />
      <path d="M 2.751801,-27.198436 A 9.52500000000005,5.352108160206987 180.0 0,0 -9.380413,-22.050733" />
      <path d="M -9.380413,-22.050733 A 9.52500000000005,5.352108160206987 180.0 0,0 2.751801,-16.903029" />
      <path d="M 14.0937,-47.637681 A 47.625,26.760540801034793 1.922472034434914e-15 0,1 31.4969,-42.194501" />
      <line x1="35.812821" y1="-44.620117" x2="31.4969" y2="-42.194501" />
      <path d="M 40.270817,-36.464633 A 47.625,26.760540801034793 1.922472034434914e-15 0,1 46.580838,-27.99243" />
      <path d="M 47.574838,-24.468343 A 47.625,26.760540801034793 1.922472034434914e-15 0,1 43.927706,-11.520832" />
      <path d="M 41.045445,-8.341491 A 47.625,26.760540801034793 1.922472034434914e-15 0,1 40.270817,-7.636832" />
      <path d="M 35.81082,-4.316894 A 47.625,26.760540801034793 1.922472034434914e-15 0,1 24.550911,0.928701" />
      <path d="M 18.893314,2.548897 A 47.625,26.760540801034793 1.922472034434914e-15 0,1 14.295962,3.501125" />
      <path d="M 2.751801,4.669678 A 47.625,26.760540801034793 1.922472034434914e-15 0,1 -4.14827,4.600872" />
      <path d="M -10.420192,4.043063 A 47.625,26.760540801034793 1.922472034434914e-15 0,1 -19.987892,2.201169" />
      <path d="M -28.399431,-0.629254 A 47.625,26.760540801034793 1.922472034434914e-15 0,1 -46.291663,-16.109035" />
      <path d="M -47.285663,-19.633122 A 47.625,26.760540801034793 1.922472034434914e-15 0,1 -43.638531,-32.580633" />
      <path d="M -40.75627,-35.759974 A 47.625,26.760540801034793 1.922472034434914e-15 0,1 -28.332282,-43.500409" />
      <path d="M -18.60414,-46.650362 A 47.625,26.760540801034793 1.922472034434914e-15 0,1 2.751801,-48.771143" />
      <path d="M 31.289643,-41.974911 C 31.289583,-42.28243 31.295313,-42.536014 31.304824,-42.717892 C 31.31976,-43.00441 31.342744,-43.123474 31.365933,-43.136596" />
      <path d="M 31.365933,-43.136596 Q 31.36994,-43.138828 31.373974,-43.13698" />
      <path d="M 31.373974,-43.13698 C 31.419875,-43.110839 31.464455,-42.740286 31.4969,-42.194501" />
      <line x1="43.926664" y1="64.524284" x2="41.240127" y2="63.015025" />
      <line x1="50.944587" y1="-19.424359" x2="50.944587" y2="61.993235" />
      <line x1="-50.655413" y1="-19.424359" x2="-50.655413" y2="61.993235" />
      <line x1="42.53086" y1="65.312783" x2="40.33618" y2="64.079842" />
      <line x1="2.833098" y1="-52.090507" x2="1.820849" y2="-48.496969" />
      <line x1="-20.490979" y1="-50.830143" x2="-17.34586" y2="-47.362604" />
      <line x1="-48.261099" y1="-38.584212" x2="-41.457662" y2="-36.63686" />
      <line x1="-56.865315" y1="-19.341194" x2="-49.201096" y2="-20.023734" />
      <line x1="-14.927984" y1="10.962277" x2="-13.915735" y2="7.368739" />
      <line x1="31.141221" y1="6.095099" x2="27.996101" y2="2.62756" />
      <line x1="53.179928" y1="-9.54869" x2="46.376491" y2="-11.496042" />
      <line x1="55.597218" y1="-29.356577" x2="47.932999" y2="-28.674038" />
      <line x1="17.966848" y1="-37.34499" x2="17.966848" y2="-43.910925" />
      <line x1="22.729348" y1="-37.34499" x2="22.729348" y2="-43.910925" />
      <line x1="24.316848" y1="-37.34499" x2="24.316848" y2="-33.405429" />
      <line x1="16.379348" y1="-37.34499" x2="16.379348" y2="-33.405429" />
      <line x1="-3.824163" y1="-27.30348" x2="-3.824163" y2="-32.556228" />
      <line x1="4.113337" y1="-27.30348" x2="4.113337" y2="-32.556228" />
      <line x1="9.669587" y1="-27.30348" x2="9.669587" y2="-22.050733" />
      <line x1="-9.380413" y1="-27.30348" x2="-9.380413" y2="-22.050733" />
      <line x1="36.571667" y1="-46.062302" x2="31.365933" y2="-43.136596" />
      <line x1="42.202274" y1="60.758126" x2="39.745915" y2="59.378178" />
      <line x1="44.173377" y1="19.776325" x2="39.661203" y2="22.312239" />
      <path d="M 39.151384,-38.744584 C 43.444626,-35.731945 46.757608,-32.166482 48.764747,-28.220147" />
      <line x1="57.15449" y1="38.272705" x2="50.855873" y2="38.83363" />
      <path d="M 50.915223,-20.458374 Q 50.944584,-19.941623 50.944587,-19.424359" />
      <line x1="48.550274" y1="57.515723" x2="42.86657" y2="55.888873" />
      <line x1="20.780154" y1="69.761654" x2="17.879798" y2="66.563969" />
      <line x1="-2.543923" y1="71.022018" x2="-1.544417" y2="67.473717" />
      <line x1="-55.308043" y1="48.288088" x2="-49.009426" y2="47.727163" />
      <path d="M -50.655413,-19.424359 C -50.655902,-21.294936 -50.365423,-23.164338 -49.798599,-24.98235 C -49.217808,-26.847611 -48.348148,-28.658273 -47.221455,-30.382466" />
      <line x1="-52.890753" y1="28.480201" x2="-47.20705" y2="30.10705" />
      <path d="M -41.644486,-36.597525 C -37.715937,-39.939553 -32.664704,-42.742163 -26.874721,-44.853" />
      <line x1="-30.852046" y1="12.836411" x2="-27.95169" y2="16.034096" />
      <path d="M -17.718574,-47.483713 C -11.154735,-48.913525 -4.073919,-49.540265 2.930164,-49.315743" />
      <line x1="15.217159" y1="7.969234" x2="14.217653" y2="11.517534" />
      <path d="M 12.774447,-48.43795 C 19.51261,-47.439686 25.882682,-45.630674 31.373974,-43.13698" />
      <line x1="-43.884203" y1="9.660682" x2="-39.372029" y2="7.124768" />
      <path d="M 14.295962,-46.839022 A 50.8,28.54457685443711 1.922472034434914e-15 0,1 31.289643,-41.974911" />
      <path d="M -17.084238,-46.277163 A 50.8,28.54457685443711 1.922472034434914e-15 0,1 1.752117,-47.95464" />
      <path d="M -41.883612,-35.458446 A 50.8,28.54457685443711 1.922472034434914e-15 0,1 -28.399431,-43.036771" />
      <path d="M -50.629642,-18.515252 A 50.8,28.54457685443711 1.922472034434914e-15 0,1 -50.655413,-19.424359" />
      <path d="M -50.655413,-19.424359 A 50.8,28.54457685443711 1.922472034434914e-15 0,1 -47.648134,-29.099764" />
      <path d="M -14.006787,7.990305 A 50.8,28.54457685443711 1.922472034434914e-15 0,1 -19.987892,6.782913" />
      <path d="M -28.399431,4.188054 A 50.8,28.54457685443711 1.922472034434914e-15 0,1 -47.581507,-9.645665" />
      <path d="M -47.648134,-9.748953 A 50.8,28.54457685443711 1.922472034434914e-15 0,1 -48.641642,-11.46708" />
      <path d="M 17.373412,7.428446 A 50.8,28.54457685443711 1.922472034434914e-15 0,1 14.295962,7.990305" />
      <path d="M 5.393493,8.967438 A 50.8,28.54457685443711 1.922472034434914e-15 0,1 -1.462942,9.105923" />
      <path d="M 42.172786,-3.390271 A 50.8,28.54457685443711 1.922472034434914e-15 0,1 40.270817,-1.919306" />
      <path d="M 35.81082,0.901865 A 50.8,28.54457685443711 1.922472034434914e-15 0,1 28.688606,4.188054" />
      <path d="M 50.918817,-20.333465 A 50.8,28.54457685443711 1.922472034434914e-15 0,1 50.944587,-19.424359" />
      <path d="M 50.944587,-19.424359 A 50.8,28.54457685443711 1.922472034434914e-15 0,1 47.937309,-9.748953" />
      <path d="M 40.270817,-36.929411 A 50.8,28.54457685443711 1.922472034434914e-15 0,1 48.930817,-27.381637" />
      <line x1="43.372614" y1="80.372197" x2="41.232863" y2="79.170114" />
      <line x1="2.751801" y1="-51.503573" x2="1.752117" y2="-47.95464" />
      <line x1="-19.987892" y1="-49.478483" x2="-17.084238" y2="-46.277163" />
      <line x1="-47.581507" y1="-37.089358" x2="-41.883612" y2="-35.458446" />
      <line x1="-56.945376" y1="-17.952803" x2="-50.629642" y2="-18.515252" />
      <line x1="-54.957376" y1="-10.90463" x2="-48.641642" y2="-11.46708" />
      <line x1="-15.006472" y1="11.539238" x2="-14.006787" y2="7.990305" />
      <line x1="-2.462627" y1="12.654856" x2="-1.462942" y2="9.105923" />
      <line x1="20.277066" y1="10.629766" x2="17.373412" y2="7.428446" />
      <line x1="31.59226" y1="7.389375" x2="28.688606" y2="4.188054" />
      <line x1="47.870681" y1="-1.759359" x2="42.172786" y2="-3.390271" />
      <line x1="53.635204" y1="-8.118042" x2="47.937309" y2="-9.748953" />
      <line x1="55.246551" y1="-20.718872" x2="50.918817" y2="-20.333465" />
      <line x1="55.246551" y1="-27.944087" x2="48.930817" y2="-27.381637" />
      <line x1="35.81082" y1="-44.515885" x2="31.289643" y2="-41.974911" />
      <line x1="43.926664" y1="77.656154" x2="41.240127" y2="76.146894" />
      <line x1="42.647747" y1="19.514944" x2="40.270817" y2="20.850817" />
      <line x1="42.734497" y1="19.569298" x2="38.237013" y2="22.096956" />
      <line x1="55.246551" y1="29.836141" x2="48.930817" y2="30.398591" />
      <line x1="56.005887" y1="34.201196" x2="49.723251" y2="34.760698" />
      <line x1="56.999887" y1="37.725282" x2="50.717251" y2="38.284784" />
      <line x1="56.835448" y1="36.919856" x2="50.918817" y2="37.446763" />
      <line x1="53.635204" y1="49.662186" x2="47.937309" y2="48.031274" />
      <line x1="52.430747" y1="53.945974" x2="46.762711" y2="52.323609" />
      <line x1="49.548485" y1="57.125315" x2="43.88045" y2="55.50295" />
      <line x1="47.870681" y1="56.020868" x2="44.376346" y2="55.020683" />
      <line x1="31.59226" y1="65.169602" x2="28.688606" y2="61.968282" />
      <line x1="28.88407" y1="68.739047" x2="25.995633" y2="65.554504" />
      <line x1="23.226474" y1="70.359243" x2="20.338036" y2="67.1747" />
      <line x1="20.277066" y1="68.409994" x2="19.215432" y2="67.239528" />
      <line x1="-2.462627" y1="70.435084" x2="-1.78457" y2="68.027948" />
      <line x1="-5.640112" y1="72.929965" x2="-4.645666" y2="69.399631" />
      <line x1="-11.912034" y1="72.372156" x2="-10.917589" y2="68.841821" />
      <line x1="-15.006472" y1="69.319466" x2="-14.006787" y2="65.770533" />
      <line x1="-54.957376" y1="46.875597" x2="-48.641642" y2="46.313148" />
      <line x1="-55.716712" y1="47.763291" x2="-49.434076" y2="47.203789" />
      <line x1="-56.710713" y1="44.239205" x2="-50.428076" y2="43.679703" />
      <line x1="-56.945376" y1="39.827425" x2="-50.629642" y2="39.264976" />
      <line x1="-51.733686" y1="27.511055" x2="-47.648134" y2="28.680464" />
      <line x1="-52.141572" y1="28.018513" x2="-46.473537" y2="29.640878" />
      <line x1="-49.259311" y1="24.839172" x2="-43.591275" y2="26.461537" />
      <line x1="-47.581507" y1="20.69087" x2="-41.883612" y2="22.321782" />
      <line x1="-29.639794" y1="13.375939" x2="-28.399431" y2="14.743456" />
      <line x1="-28.594896" y1="13.225439" x2="-25.706458" y2="16.409983" />
      <line x1="-22.937299" y1="11.605243" x2="-20.048862" y2="14.789787" />
      <line x1="-19.987892" y1="8.301745" x2="-17.084238" y2="11.503065" />
      <line x1="2.751801" y1="6.276655" x2="1.752117" y2="9.825588" />
      <line x1="5.929286" y1="9.034521" x2="4.934841" y2="12.564856" />
      <line x1="12.201209" y1="9.592331" x2="11.206763" y2="13.122665" />
      <line x1="14.98559" y1="8.492989" x2="14.295962" y2="10.941206" />
      <line x1="35.81082" y1="13.264343" x2="31.289643" y2="15.805317" />
      <line x1="38.24391" y1="17.046548" x2="33.746426" y2="19.574206" />
      <line x1="-39.981642" y1="76.871914" x2="-44.50282" y2="79.412888" />
      <line x1="-44.50282" y1="11.127164" x2="-39.981642" y2="8.58619" />
      <line x1="-42.445322" y1="9.867709" x2="-37.947838" y2="7.340051" />
      <line x1="-37.954735" y1="12.390459" x2="-33.457251" y2="9.862801" />
      <line x1="-35.521646" y1="16.172664" x2="-31.000468" y2="13.63169" />
    </g>
  </g>
</svg>